<svg width="108" height="39" viewBox="0 0 108 39" fill="none" xmlns="http://www.w3.org/2000/svg">
<path d="M93.9763 38.4353C92.2103 38.4353 90.5656 38.1064 89.042 37.4485C87.5531 36.7906 86.2373 35.873 85.0946 34.6957C83.9866 33.4838 83.1036 32.0295 82.4457 30.3328C81.8224 28.6361 81.5108 26.7489 81.5108 24.6713C81.5108 22.5937 81.8224 20.7066 82.4457 19.0099C83.1036 17.3132 83.9866 15.8762 85.0946 14.6989C86.2373 13.487 87.5531 12.5521 89.042 11.8942C90.5656 11.2363 92.2103 10.9073 93.9763 10.9073C95.3267 10.9073 96.5213 11.1151 97.5601 11.5306C98.5989 11.9461 99.4646 12.3963 100.157 12.881C100.988 13.4697 101.698 14.1103 102.287 14.8028H102.546V11.4267H108V37.9159H102.546V34.2802H102.287C101.698 35.042 100.988 35.7345 100.157 36.3578C99.4646 36.8772 98.5989 37.3619 97.5601 37.8121C96.5213 38.2276 95.3267 38.4353 93.9763 38.4353ZM95.0151 33.5011C97.2312 33.5011 99.0318 32.7566 100.417 31.2677C101.836 29.7441 102.546 27.5453 102.546 24.6713C102.546 21.7973 101.836 19.6159 100.417 18.1269C99.0318 16.6034 97.2312 15.8416 95.0151 15.8416C92.6605 15.8416 90.7734 16.6034 89.3537 18.1269C87.934 19.6159 87.2241 21.7973 87.2241 24.6713C87.2241 27.5453 87.934 29.7441 89.3537 31.2677C90.7734 32.7566 92.6605 33.5011 95.0151 33.5011Z" fill="white"/>
<path d="M62.8308 11.4267H68.2844V15.3222H68.5441C68.9597 14.5604 69.5137 13.8679 70.2062 13.2446C70.7949 12.7252 71.5393 12.2578 72.4396 11.8422C73.3745 11.3921 74.4999 11.167 75.8157 11.167H78.9321V16.361H75.556C74.5172 16.361 73.5477 16.5341 72.6474 16.8804C71.7817 17.2267 71.0199 17.7114 70.362 18.3347C69.7041 18.958 69.1847 19.7198 68.8038 20.62C68.4576 21.5203 68.2844 22.5245 68.2844 23.6325V37.916H62.8308V11.4267Z" fill="white"/>
<path d="M44.6479 38.4353C42.778 38.4353 41.0121 38.0891 39.35 37.3966C37.7226 36.6694 36.2856 35.6999 35.039 34.4879C33.8271 33.2414 32.8749 31.7871 32.1823 30.125C31.4898 28.4283 31.1435 26.6104 31.1435 24.6713C31.1435 22.7323 31.4898 20.9317 32.1823 19.2696C32.8749 17.5729 33.8271 16.1186 35.039 14.9067C36.2856 13.6601 37.7226 12.6906 39.35 11.9981C41.0121 11.2709 42.778 10.9073 44.6479 10.9073C46.5177 10.9073 48.2663 11.2709 49.8938 11.9981C51.5558 12.6906 52.9928 13.6601 54.2048 14.9067C55.4513 16.1186 56.4208 17.5729 57.1134 19.2696C57.8059 20.9317 58.1522 22.7323 58.1522 24.6713V26.4892H36.5972C36.805 27.5973 37.1512 28.5841 37.636 29.4498C38.1208 30.3154 38.7267 31.0599 39.4539 31.6832C40.181 32.2718 40.9775 32.722 41.8431 33.0336C42.7434 33.3453 43.6783 33.5011 44.6479 33.5011C45.9983 33.5011 47.1583 33.3279 48.1278 32.9817C49.0974 32.6008 49.8764 32.168 50.4651 31.6832C51.1576 31.1638 51.729 30.5578 52.1791 29.8653H57.8925C57.2346 31.4927 56.317 32.9297 55.1397 34.1763C54.6203 34.6957 54.0316 35.2151 53.3737 35.7345C52.7158 36.2539 51.954 36.7213 51.0884 37.1369C50.2227 37.5177 49.2532 37.8294 48.1797 38.0718C47.1063 38.3142 45.929 38.4353 44.6479 38.4353ZM52.4388 22.0743C52.3003 21.3126 52.0406 20.5508 51.6597 19.789C51.2788 19.0272 50.7594 18.3693 50.1015 17.8153C49.4436 17.2266 48.6645 16.7592 47.7642 16.4129C46.8639 16.032 45.8252 15.8416 44.6479 15.8416C43.7476 15.8416 42.8646 15.9801 41.9989 16.2571C41.1679 16.5341 40.3888 16.9496 39.6616 17.5037C38.9691 18.0231 38.3805 18.681 37.8957 19.4774C37.4109 20.2391 37.0647 21.1048 36.8569 22.0743H52.4388Z" fill="white"/>
<path d="M12.4655 38.4354C10.6996 38.4354 9.05482 38.1064 7.53126 37.4485C6.04232 36.7906 4.72652 35.873 3.58384 34.6957C2.4758 33.4838 1.59282 32.0295 0.934922 30.3328C0.311646 28.6361 7.62939e-06 26.7489 7.62939e-06 24.6713C7.62939e-06 22.5938 0.311646 20.7066 0.934922 19.0099C1.59282 17.3132 2.4758 15.8762 3.58384 14.6989C4.72652 13.487 6.04232 12.5521 7.53126 11.8942C9.05482 11.2363 10.6996 10.9073 12.4655 10.9073C13.816 10.9073 15.0106 11.1151 16.0494 11.5306C17.0882 11.9461 17.9538 12.3963 18.6463 12.881C19.4774 13.4697 20.1872 14.1103 20.7759 14.8028H21.0356V11.4267H26.4892V37.916H21.0356V34.2802H20.7759C20.1872 35.042 19.4774 35.7345 18.6463 36.3578C17.9538 36.8772 17.0882 37.3619 16.0494 37.8121C15.0106 38.2276 13.816 38.4354 12.4655 38.4354ZM13.5043 33.5011C15.7204 33.5011 17.521 32.7566 18.906 31.2677C20.3257 29.7441 21.0356 27.5453 21.0356 24.6713C21.0356 21.7973 20.3257 19.6159 18.906 18.1269C17.521 16.6034 15.7204 15.8416 13.5043 15.8416C11.1497 15.8416 9.26258 16.6034 7.8429 18.1269C6.42321 19.6159 5.71337 21.7973 5.71337 24.6713C5.71337 27.5453 6.42321 29.7441 7.8429 31.2677C9.26258 32.7566 11.1497 33.5011 13.5043 33.5011ZM7.01186 0H21.555V4.41487H7.01186V0Z" fill="white"/>
</svg>
