<svg fill="none" height="18" viewBox="0 0 18 18" width="18" xmlns="http://www.w3.org/2000/svg" xmlns:xlink="http://www.w3.org/1999/xlink"><clipPath id="a"><path d="m0 0h18v18h-18z"/></clipPath><g clip-path="url(#a)"><path d="m12.6562 3.42383c.4143 0 .75-.33579.75-.75 0-.41422-.3357-.75-.75-.75-.4142 0-.75.33578-.75.75 0 .41421.3358.75.75.75z" stroke="#f7f6f5" stroke-linecap="round" stroke-linejoin="round"/><path d="m11.6737 4.65723c.1553 0 .2813-.12592.2813-.28125s-.126-.28125-.2813-.28125-.2812.12592-.2812.28125.1259.28125.2812.28125z" fill="#f7f6f5"/><path d="m15.3374 6.10083c.4142 0 .75-.33579.75-.75s-.3358-.75-.75-.75-.75.33579-.75.75.3358.75.75.75z" stroke="#f7f6f5" stroke-linecap="round" stroke-linejoin="round"/><path d="m13.6353 6.61475c.1553 0 .2812-.12592.2812-.28125s-.1259-.28125-.2812-.28125c-.1554 0-.2813.12592-.2813.28125s.1259.28125.2813.28125z" fill="#f7f6f5"/><path d="m16.3125 9.75708c.4142 0 .75-.33579.75-.75s-.3358-.75-.75-.75-.75.33579-.75.75.3358.75.75.75z" stroke="#f7f6f5" stroke-linecap="round" stroke-linejoin="round"/><path d="m14.347 9.28833c.1554 0 .2813-.12592.2813-.28125s-.1259-.28125-.2813-.28125c-.1553 0-.2812.12592-.2812.28125s.1259.28125.2812.28125z" fill="#f7f6f5"/><path d="m15.333 13.4133c.4142 0 .75-.3358.75-.75s-.3358-.75-.75-.75-.75.3358-.75.75.3358.75.75.75z" stroke="#f7f6f5" stroke-linecap="round" stroke-linejoin="round"/><path d="m13.6309 11.9617c.1553 0 .2812-.1259.2812-.2813 0-.1553-.1259-.2812-.2812-.2812-.1554 0-.2813.1259-.2813.2812 0 .1554.1259.2813.2813.2813z" fill="#f7f6f5"/><path d="m12.6562 16.0896c.4143 0 .75-.3358.75-.75s-.3357-.75-.75-.75c-.4142 0-.75.3358-.75.75s.3358.75.75.75z" stroke="#f7f6f5" stroke-linecap="round" stroke-linejoin="round"/><path d="m11.6737 13.9189c.1553 0 .2813-.1259.2813-.2812s-.126-.2813-.2813-.2813-.2812.126-.2812.2813.1259.2812.2812.2812z" fill="#f7f6f5"/><path d="m9 17.0625c.41421 0 .75-.3358.75-.75s-.33579-.75-.75-.75-.75.3358-.75.75.33579.75.75.75z" stroke="#f7f6f5" stroke-linecap="round" stroke-linejoin="round"/><path d="m9 14.6283c.15533 0 .28125-.1259.28125-.2813 0-.1553-.12592-.2812-.28125-.2812s-.28125.1259-.28125.2812c0 .1554.12592.2813.28125.2813z" fill="#f7f6f5"/><path d="m5.34375 16.0896c.41421 0 .75-.3358.75-.75s-.33579-.75-.75-.75-.75.3358-.75.75.33579.75.75.75z" stroke="#f7f6f5" stroke-linecap="round" stroke-linejoin="round"/><path d="m6.32629 13.9189c.15533 0 .28125-.1259.28125-.2812s-.12592-.2813-.28125-.2813-.28125.126-.28125.2813.12592.2812.28125.2812z" fill="#f7f6f5"/><path d="m2.66699 13.4133c.41422 0 .75-.3358.75-.75s-.33578-.75-.75-.75c-.41421 0-.75.3358-.75.75s.33579.75.75.75z" stroke="#f7f6f5" stroke-linecap="round" stroke-linejoin="round"/><path d="m4.36914 11.9617c.15533 0 .28125-.1259.28125-.2813 0-.1553-.12592-.2812-.28125-.2812s-.28125.1259-.28125.2812c0 .1554.12592.2813.28125.2813z" fill="#f7f6f5"/><path d="m1.6875 9.75708c.41421 0 .75-.33579.75-.75s-.33579-.75-.75-.75-.75.33579-.75.75.33579.75.75.75z" stroke="#f7f6f5" stroke-linecap="round" stroke-linejoin="round"/><path d="m3.65295 9.28833c.15533 0 .28125-.12592.28125-.28125s-.12592-.28125-.28125-.28125-.28125.12592-.28125.28125.12592.28125.28125.28125z" fill="#f7f6f5"/><path d="m2.66699 6.10083c.41422 0 .75-.33579.75-.75s-.33578-.75-.75-.75c-.41421 0-.75.33579-.75.75s.33579.75.75.75z" stroke="#f7f6f5" stroke-linecap="round" stroke-linejoin="round"/><path d="m4.36914 6.61475c.15533 0 .28125-.12592.28125-.28125s-.12592-.28125-.28125-.28125-.28125.12592-.28125.28125.12592.28125.28125.28125z" fill="#f7f6f5"/><path d="m5.34375 3.42383c.41421 0 .75-.33579.75-.75 0-.41422-.33579-.75-.75-.75s-.75.33578-.75.75c0 .41421.33579.75.75.75z" stroke="#f7f6f5" stroke-linecap="round" stroke-linejoin="round"/><path d="m6.32629 4.65723c.15533 0 .28125-.12592.28125-.28125s-.12592-.28125-.28125-.28125-.28125.12592-.28125.28125.12592.28125.28125.28125z" fill="#f7f6f5"/><path d="m9 2.4375c.41421 0 .75-.33579.75-.75s-.33579-.75-.75-.75-.75.33579-.75.75.33579.75.75.75z" stroke="#f7f6f5" stroke-linecap="round" stroke-linejoin="round"/><path d="m9 3.9342c.15533 0 .28125-.12592.28125-.28125s-.12592-.28125-.28125-.28125-.28125.12592-.28125.28125.12592.28125.28125.28125z" fill="#f7f6f5"/></g></svg>