<svg fill="none" height="27" viewBox="0 0 27 27" width="27" xmlns="http://www.w3.org/2000/svg" xmlns:xlink="http://www.w3.org/1999/xlink"><linearGradient id="a" gradientUnits="userSpaceOnUse" x1="13.4315" x2="13.4315" y1="8.65905" y2="18.2811"><stop offset="0" stop-color="#a2c0e6"/><stop offset="1" stop-color="#406cb1"/></linearGradient><clipPath id="b"><path d="m0 0h27v27h-27z"/></clipPath><g clip-path="url(#b)"><path d="m13.4648.00241236s7.9297-.35692636 12.1323 7.61234764h-12.8066s-2.4187-.07955-4.48042 2.85484c-.59461 1.2292-1.22885 2.498-.5153 4.9954-1.03079-1.7441-5.47154-9.47569-5.47154-9.47569s3.1326-5.669842 11.14156-5.98689764z" fill="#c6352e"/><path d="m25.1843 20.2361s-3.6567 7.0449-12.6599 6.6987c1.1107-1.9225 6.4048-11.09 6.4048-11.09s1.2782-2.0546-.2311-5.3074c-.7672-1.12974-1.5485-2.31359-4.0685-2.9448 2.0267-.02012 10.942.0013 10.942.0013s3.3433 5.5481-.3873 12.6422z" fill="#f4d911"/><path d="m1.80173 20.2899s-4.2725-6.6901.52956-14.31334c1.10966 1.9232 6.40097 11.09234 6.40097 11.09234s1.13991 2.1341 4.71174 2.4537c1.3616-.0993 2.7779-.184 4.5845-2.0505-.9961 1.7648-5.4729 9.4753-5.4729 9.4753s-6.47618.1207-10.75387-6.6575z" fill="#81b354"/><path d="m12.5244 27 1.8014-7.5171s1.9807-.1545 3.6404-1.9761c-1.0303 1.8124-5.4418 9.4932-5.4418 9.4932z" fill="#7baa50"/><path d="m7.43164 13.5841c0-3.3138 2.68606-6.00012 6.00006-6.00012 3.3138 0 6.0001 2.68632 6.0001 6.00012 0 3.3139-2.6862 6.0003-6.0001 6.0003-3.314 0-6.00006-2.6863-6.00006-6.0003z" fill="#fff"/><path d="m8.43579 13.5841c0-2.7591 2.23661-4.99572 4.99591-4.99572 2.7588 0 4.9956 2.23662 4.9956 4.99572 0 2.759-2.2368 4.9959-4.9956 4.9959-2.7593 0-4.99591-2.237-4.99591-4.9959z" fill="url(#a)"/><path d="m25.5718 7.59399-7.4177 2.17483s-1.1186-1.64151-3.5245-2.17613c2.0847-.00709 10.9422.0013 10.9422.0013z" fill="#e7ce12"/><path d="m7.65053 15.1954c-1.04245-1.8053-5.32704-9.20614-5.32704-9.20614l5.49486 5.43564s-.56468 1.1616-.35057 2.8206z" fill="#bc332c"/></g></svg>