<svg width="17" height="17" viewBox="0 0 17 17" fill="none" xmlns="http://www.w3.org/2000/svg">
<g clip-path="url(#clip0_246_330)">
<path d="M0.354172 4.60419V2.47919H2.47917M15.9375 4.60419V2.47919H13.8125M0.354172 13.1042V15.2292H2.47917M15.9375 13.1042V15.2292H13.8125M8.14584 2.83335L7.08334 3.89585L8.14584 4.95835L9.20763 3.89585L8.14584 2.83335ZM1.77084 7.79169L0.708338 8.85419L1.77084 9.91669L2.83263 8.85419L1.77084 7.79169ZM14.5208 7.79169L13.4583 8.85419L14.5208 9.91669L15.5826 8.85419L14.5208 7.79169ZM8.14584 7.79169L7.08334 8.85419L8.14584 9.91669L9.20763 8.85419L8.14584 7.79169ZM8.14584 12.75L7.08334 13.8125L8.14584 14.875L9.20763 13.8125L8.14584 12.75Z" stroke="#F7F6F5" stroke-miterlimit="10" stroke-linecap="round" stroke-linejoin="round"/>
</g>
<defs>
<clipPath id="clip0_246_330">
<rect width="17" height="17" fill="white"/>
</clipPath>
</defs>
</svg>
