<svg fill="none" height="340" viewBox="0 0 473 340" width="473" xmlns="http://www.w3.org/2000/svg" xmlns:xlink="http://www.w3.org/1999/xlink"><filter id="a" color-interpolation-filters="sRGB" filterUnits="userSpaceOnUse" height="339.129" width="472.776" x="-.000048" y="-.000048"><feFlood flood-opacity="0" result="BackgroundImageFix"/><feColorMatrix in="SourceAlpha" result="hardAlpha" type="matrix" values="0 0 0 0 0 0 0 0 0 0 0 0 0 0 0 0 0 0 127 0"/><feMorphology in="SourceAlpha" operator="dilate" radius="1.67059" result="effect1_dropShadow_6585_1682"/><feOffset/><feGaussianBlur stdDeviation="10.8588"/><feColorMatrix type="matrix" values="0 0 0 0 0.75 0 0 0 0 0.75 0 0 0 0 0.75 0 0 0 0.35 0"/><feBlend in2="BackgroundImageFix" mode="normal" result="effect1_dropShadow_6585_1682"/><feBlend in="SourceGraphic" in2="effect1_dropShadow_6585_1682" mode="normal" result="shape"/></filter><clipPath id="b"><rect height="292.353" rx="10.0235" width="426" x="23.3882" y="23.3882"/></clipPath><clipPath id="c"><path d="m23.3882 23.3882h425.851v22.9825h-425.851z"/></clipPath><clipPath id="d"><path d="m30.4993 32.3188h28.4452v6.56427h-28.4452z"/></clipPath><g filter="url(#a)"><g clip-path="url(#b)"><path d="m23.3882 41.7642h426v273.976h-426z" fill="#fff"/><g clip-path="url(#c)"><path d="m23.3882 27.7644c0-2.4169 1.9593-4.3762 4.3762-4.3762h417.0986c2.417 0 4.377 1.9593 4.377 4.3762v18.6062h-425.8518z" fill="#b4b4b4"/><g clip-path="url(#d)" fill="#fff" stroke="#fff" stroke-width=".273511"><circle cx="55.6628" cy="35.601" r="3.14538"/><circle cx="44.7221" cy="35.601" r="3.14538"/><circle cx="33.7814" cy="35.601" r="3.14538"/></g></g><rect fill="#eeedfe" height="42.1435" rx="21.0717" width="173.049" x="149.994" y="257.271"/><path d="m172.996 284.342v-13.466h6.178c1.293 0 2.335.345 3.126 1.036.804.69 1.205 1.594 1.205 2.712 0 1.72-.822 2.806-2.467 3.258v.057c.64.188 1.118.489 1.432.904.326.402.533 1.004.621 1.808.025.301.05.659.075 1.073.038.402.063.722.076.961.025.238.05.477.075.716.038.238.082.426.132.565.063.125.138.207.226.244v.132h-2.618c-.05-.025-.094-.069-.132-.132-.038-.075-.069-.175-.094-.301-.025-.125-.05-.251-.075-.377-.013-.138-.032-.307-.057-.508-.012-.214-.025-.396-.038-.546-.012-.164-.031-.371-.056-.622-.013-.263-.025-.471-.038-.621-.113-1.532-.992-2.298-2.636-2.298h-2.204v5.405zm2.731-11.262v3.747h2.9c.716 0 1.262-.169 1.639-.508.389-.339.584-.785.584-1.337 0-.565-.182-1.024-.546-1.375-.365-.352-.898-.527-1.601-.527zm13.777 11.545c-1.557 0-2.781-.477-3.673-1.432-.891-.966-1.337-2.197-1.337-3.691 0-1.444.446-2.649 1.337-3.616.892-.98 2.034-1.469 3.428-1.469 1.519 0 2.693.527 3.522 1.582.829 1.054 1.243 2.467 1.243 4.237h-7.006c.1.766.357 1.363.772 1.79.414.414.979.621 1.695.621.942 0 1.563-.395 1.864-1.186h2.524c-.188.904-.665 1.657-1.431 2.26-.766.602-1.745.904-2.938.904zm-.207-8.231c-1.243 0-1.991.691-2.242 2.072h4.294c-.037-.615-.244-1.111-.621-1.488-.377-.389-.854-.584-1.431-.584zm9.83 8.231c-1.381 0-2.461-.302-3.24-.904-.778-.615-1.205-1.45-1.28-2.505h2.373c.163 1.067.866 1.601 2.109 1.601.565 0 .998-.101 1.3-.302.314-.201.471-.47.471-.809 0-.126-.025-.239-.076-.339-.037-.101-.113-.189-.226-.264-.1-.088-.194-.157-.282-.207-.076-.051-.214-.101-.415-.151-.2-.05-.357-.088-.47-.113-.101-.025-.283-.057-.547-.094-.251-.05-.426-.088-.527-.113-.527-.101-.96-.201-1.299-.302-.327-.113-.672-.27-1.036-.47-.364-.214-.641-.496-.829-.848-.176-.364-.264-.797-.264-1.299 0-1.005.364-1.771 1.093-2.298.74-.528 1.688-.791 2.844-.791 1.243 0 2.216.289 2.919.866.716.565 1.124 1.344 1.224 2.336h-2.317c-.1-.942-.721-1.413-1.864-1.413-.515 0-.923.094-1.224.282-.289.189-.433.452-.433.792 0 .113.018.219.056.32.05.088.126.169.226.245.113.062.22.119.32.169.101.038.245.082.433.132.189.038.352.075.49.113.138.025.327.063.565.113.239.038.427.069.565.094.402.088.728.17.979.245.264.063.566.176.905.339.339.151.602.326.791.527.2.189.37.452.508.791.151.327.226.71.226 1.149 0 .954-.377 1.714-1.13 2.279-.741.553-1.72.829-2.938.829zm9.855 0c-1.557 0-2.782-.477-3.673-1.432-.892-.966-1.337-2.197-1.337-3.691 0-1.444.445-2.649 1.337-3.616.891-.98 2.034-1.469 3.428-1.469 1.519 0 2.693.527 3.522 1.582.828 1.054 1.243 2.467 1.243 4.237h-7.007c.101.766.358 1.363.773 1.79.414.414.979.621 1.695.621.941 0 1.563-.395 1.864-1.186h2.524c-.188.904-.665 1.657-1.431 2.26-.766.602-1.746.904-2.938.904zm-.208-8.231c-1.243 0-1.99.691-2.241 2.072h4.294c-.037-.615-.245-1.111-.621-1.488-.377-.389-.854-.584-1.432-.584zm5.164-.019v-1.695h1.338v-3.013h2.504v3.013h1.658v1.695h-1.658v5.123c0 .641.321.961.961.961l.753-.019v1.883c-.389.026-.923.038-1.601.038-.74 0-1.362-.176-1.864-.527-.502-.364-.753-.961-.753-1.789v-5.67zm14.465 8.25c-1.494 0-2.693-.484-3.597-1.45-.904-.967-1.356-2.185-1.356-3.654s.439-2.687 1.318-3.654c.891-.967 2.059-1.45 3.503-1.45 1.218 0 2.21.32 2.976.96.766.641 1.237 1.501 1.412 2.581h-2.505c-.087-.44-.288-.798-.602-1.074s-.703-.414-1.168-.414c-.753 0-1.331.27-1.733.81-.401.539-.602 1.287-.602 2.241 0 .941.194 1.689.583 2.241.39.54.961.81 1.714.81 1.118 0 1.765-.546 1.94-1.639h2.468c-.088 1.068-.522 1.953-1.3 2.656-.778.691-1.796 1.036-3.051 1.036zm13.679-1.45c-.941.966-2.153 1.45-3.635 1.45-1.481 0-2.693-.484-3.635-1.45-.941-.98-1.412-2.198-1.412-3.654 0-1.457.471-2.668 1.412-3.635.942-.98 2.154-1.469 3.635-1.469 1.482 0 2.694.489 3.635 1.469.942.967 1.413 2.178 1.413 3.635 0 1.456-.471 2.674-1.413 3.654zm-3.635-.509c.766 0 1.363-.282 1.79-.847.439-.578.659-1.344.659-2.298s-.22-1.72-.659-2.298c-.427-.578-1.024-.866-1.79-.866-.778 0-1.381.288-1.808.866-.427.565-.64 1.331-.64 2.298 0 .954.213 1.72.64 2.298.427.565 1.03.847 1.808.847zm6.239 1.676v-9.662h2.467v1.3h.056c.616-1.042 1.551-1.563 2.807-1.563.602 0 1.136.157 1.601.471.477.301.835.709 1.073 1.224h.038c.703-1.13 1.67-1.695 2.9-1.695 1.005 0 1.783.307 2.336.923.565.602.847 1.437.847 2.505v6.497h-2.561v-6.064c0-1.105-.496-1.658-1.488-1.658-.54 0-.967.195-1.281.584-.301.377-.452.885-.452 1.526v5.612h-2.561v-6.064c0-1.105-.496-1.658-1.488-1.658-.515 0-.936.195-1.262.584-.314.377-.471.885-.471 1.526v5.612zm15.707 3.164v-12.826h2.467v1.206h.057c.715-.98 1.663-1.469 2.844-1.469 1.268 0 2.285.471 3.051 1.412.766.942 1.149 2.172 1.149 3.692 0 1.557-.383 2.8-1.149 3.729-.766.917-1.777 1.375-3.032 1.375-1.256 0-2.185-.458-2.788-1.375h-.038v4.256zm4.84-5.009c.653 0 1.168-.258 1.545-.773.389-.514.584-1.224.584-2.128 0-.967-.182-1.726-.547-2.279-.364-.552-.922-.829-1.676-.829-.766 0-1.331.289-1.695.867-.364.565-.546 1.312-.546 2.241 0 .892.201 1.601.603 2.128.401.515.979.773 1.732.773zm5.957 1.845v-13.466h2.562v13.466zm8.787.283c-1.557 0-2.781-.477-3.672-1.432-.892-.966-1.338-2.197-1.338-3.691 0-1.444.446-2.649 1.338-3.616.891-.98 2.034-1.469 3.427-1.469 1.52 0 2.694.527 3.522 1.582.829 1.054 1.243 2.467 1.243 4.237h-7.006c.101.766.358 1.363.772 1.79.415.414.98.621 1.695.621.942 0 1.564-.395 1.865-1.186h2.524c-.189.904-.666 1.657-1.432 2.26-.766.602-1.745.904-2.938.904zm-.207-8.231c-1.243 0-1.99.691-2.241 2.072h4.294c-.038-.615-.245-1.111-.622-1.488-.376-.389-.853-.584-1.431-.584zm5.164-.019v-1.695h1.337v-3.013h2.505v3.013h1.658v1.695h-1.658v5.123c0 .641.32.961.961.961l.753-.019v1.883c-.389.026-.923.038-1.601.038-.741 0-1.362-.176-1.864-.527-.503-.364-.754-.961-.754-1.789v-5.67zm11.266 8.25c-1.557 0-2.782-.477-3.673-1.432-.892-.966-1.337-2.197-1.337-3.691 0-1.444.445-2.649 1.337-3.616.891-.98 2.034-1.469 3.428-1.469 1.519 0 2.693.527 3.522 1.582.828 1.054 1.243 2.467 1.243 4.237h-7.007c.101.766.358 1.363.773 1.79.414.414.979.621 1.695.621.941 0 1.563-.395 1.864-1.186h2.524c-.188.904-.665 1.657-1.431 2.26-.766.602-1.746.904-2.938.904zm-.208-8.231c-1.243 0-1.99.691-2.241 2.072h4.294c-.037-.615-.245-1.111-.621-1.488-.377-.389-.854-.584-1.432-.584z" fill="#1d1d1f"/><rect fill="#eeedfe" height="30.7238" rx="15.3619" width="109.046" x="183.994" y="56.7998"/><path d="m207.132 65.9067c3.455 0 6.255 2.8004 6.255 6.2551s-2.8 6.2551-6.255 6.2551-6.255-2.8004-6.255-6.2551 2.8-6.2551 6.255-6.2551zm0 1.2511c-1.327 0-2.6.5272-3.538 1.4656-.939.9385-1.466 2.2113-1.466 3.5384 0 1.3272.527 2.6 1.466 3.5384.938.9385 2.211 1.4657 3.538 1.4657s2.6-.5272 3.538-1.4657c.939-.9384 1.466-2.2112 1.466-3.5384 0-1.3271-.527-2.5999-1.466-3.5384-.938-.9384-2.211-1.4656-3.538-1.4656zm0 1.251c.153 0 .301.0562.416.158.114.1019.187.2421.205.3943l.005.0732v2.8686l1.693 1.6932c.112.1126.177.2636.182.4225.005.1588-.051.3136-.156.4328s-.252.1939-.41.2089c-.158.0151-.316-.0306-.442-.1278l-.059-.0519-1.876-1.8765c-.097-.0973-.16-.224-.178-.3603l-.005-.082v-3.1275c0-.1659.065-.325.183-.4423.117-.1173.276-.1832.442-.1832z" fill="#1d1d1f"/><path d="m228.586 75.8668c-1.185 0-2.093-.3009-2.722-.9027-.629-.611-.953-1.4408-.971-2.4894h1.778c.073 1.2675.688 1.9012 1.847 1.9012.519 0 .925-.1322 1.217-.3966.292-.2736.438-.6475.438-1.1216 0-.456-.146-.8116-.438-1.0669s-.721-.383-1.286-.383h-.574v-1.4088h.533c.456 0 .821-.1094 1.094-.3282.283-.2189.424-.5244.424-.9165 0-.3738-.118-.6702-.355-.889-.237-.228-.561-.342-.971-.342-.511 0-.908.1505-1.19.4514-.274.3009-.42.7067-.438 1.2173h-1.778c.036-.9483.346-1.7006.93-2.2568s1.409-.8343 2.476-.8343c.984 0 1.764.2279 2.339.6838.583.456.875 1.0715.875 1.8465 0 .9666-.534 1.6231-1.6 1.9696v.0274c1.267.31 1.901 1.0942 1.901 2.3526 0 .9301-.333 1.6459-.999 2.1474-.665.4924-1.509.7386-2.53.7386zm4.396-4.3222v-1.9833h1.997v1.9833zm0 4.117v-1.9833h1.997v1.9833zm6.914.2189c-1.194 0-2.147-.4423-2.859-1.3268-.702-.8845-1.053-2.0744-1.053-3.5699 0-1.4954.356-2.6854 1.067-3.5699s1.664-1.3267 2.859-1.3267c1.203 0 2.152.4422 2.845 1.3267.702.8754 1.053 2.0654 1.053 3.5699 0 1.4955-.351 2.6854-1.053 3.5699-.693.8845-1.646 1.3268-2.859 1.3268zm.014-1.5867c1.304 0 1.956-1.1033 1.956-3.31 0-1.0395-.16-1.851-.479-2.4346s-.812-.8754-1.477-.8754c-.675 0-1.177.2918-1.505.8754-.319.5836-.479 1.3951-.479 2.4346s.16 1.8511.479 2.4347c.328.5836.83.8753 1.505.8753zm8.628 1.5867c-1.194 0-2.147-.4423-2.858-1.3268-.703-.8845-1.054-2.0744-1.054-3.5699 0-1.4954.356-2.6854 1.067-3.5699s1.664-1.3267 2.859-1.3267c1.203 0 2.152.4422 2.845 1.3267.702.8754 1.053 2.0654 1.053 3.5699 0 1.4955-.351 2.6854-1.053 3.5699-.693.8845-1.646 1.3268-2.859 1.3268zm.014-1.5867c1.304 0 1.956-1.1033 1.956-3.31 0-1.0395-.16-1.851-.479-2.4346s-.811-.8754-1.477-.8754c-.675 0-1.176.2918-1.505.8754-.319.5836-.478 1.3951-.478 2.4346s.159 1.8511.478 2.4347c.329.5836.83.8753 1.505.8753zm7.205 1.3678v-7.0167h1.792v.9438h.041c.447-.7569 1.126-1.1353 2.038-1.1353.438 0 .825.114 1.163.342.346.2188.606.5152.779.889h.028c.51-.8206 1.213-1.231 2.106-1.231.73 0 1.295.2234 1.696.6702.411.4377.616 1.0441.616 1.8192v4.7188h-1.86v-4.4042c0-.8025-.361-1.2037-1.081-1.2037-.392 0-.702.1414-.93.424-.219.2736-.328.6429-.328 1.1079v4.076h-1.861v-4.4042c0-.8025-.36-1.2037-1.08-1.2037-.374 0-.679.1414-.917.424-.227.2736-.341.6429-.341 1.1079v4.076zm11.407 0v-7.0167h1.861v7.0167zm0-8.1109v-1.6687h1.861v1.6687zm4.878 1.0942v.9575h.041c.484-.766 1.177-1.149 2.079-1.149.721 0 1.304.2462 1.751.7386.447.4833.67 1.1125.67 1.8876v4.582h-1.86v-4.3085c0-.383-.109-.693-.328-.9301-.21-.2371-.506-.3556-.889-.3556-.41 0-.752.1505-1.026.4514-.264.3009-.397.6884-.397 1.1626v3.9802h-1.86v-7.0167z" fill="#1d1d1f"/><g fill="#f6f6f6" stroke="#1d1d1f" stroke-width="1.67059"><rect height="113.6" rx="9.18823" width="167.059" x="153.081" y="97.7288"/><path d="m226.587 211.329h23.3882v23.3882h-23.3882z"/><rect height="6.68235" rx="3.34118" width="80.1882" x="198.187" y="234.718"/></g><rect fill="#d9d9d9" height="15.0353" rx="3.34118" width="91.8823" x="190.669" y="125.294"/><rect fill="#d9d9d9" height="10.0235" rx="3.34118" width="58.4706" x="190.669" y="145.341"/><rect fill="#d9d9d9" height="8.35294" rx="3.34118" width="40.0941" x="190.669" y="162.047"/><circle cx="269.187" cy="172.071" fill="#1d1d1f" r="6.68235"/><path d="m261.969 183.361c-.486.76-.267 1.78.542 2.181 1.607.796 3.347 1.3 5.14 1.485 2.336.24 4.695-.071 6.89-.907 2.194-.836 4.162-2.175 5.746-3.908 1.584-1.734 2.74-3.814 3.375-6.075s.732-4.639.283-6.944c-.45-2.304-1.432-4.472-2.87-6.329-1.438-1.856-3.291-3.35-5.41-4.362-1.626-.776-3.374-1.252-5.16-1.409-.899-.08-1.618.677-1.599 1.579.019.903.769 1.608 1.666 1.714 1.275.151 2.52.51 3.685 1.066 1.658.792 3.108 1.961 4.233 3.414s1.894 3.149 2.245 4.953c.352 1.804.276 3.664-.221 5.434-.497 1.769-1.401 3.397-2.641 4.753-1.239 1.357-2.779 2.404-4.497 3.059-1.717.654-3.563.897-5.391.709-1.284-.132-2.534-.474-3.701-1.009-.821-.376-1.828-.165-2.315.596z" fill="#1d1d1f"/></g></g></svg>