<svg fill="none" height="340" viewBox="0 0 549 340" width="549" xmlns="http://www.w3.org/2000/svg" xmlns:xlink="http://www.w3.org/1999/xlink"><filter id="a" color-interpolation-filters="sRGB" filterUnits="userSpaceOnUse" height="339.686" width="473.553" x=".000103" y=".000103"><feFlood flood-opacity="0" result="BackgroundImageFix"/><feColorMatrix in="SourceAlpha" result="hardAlpha" type="matrix" values="0 0 0 0 0 0 0 0 0 0 0 0 0 0 0 0 0 0 127 0"/><feMorphology in="SourceAlpha" operator="dilate" radius="1.67333" result="effect1_dropShadow_6585_1595"/><feOffset/><feGaussianBlur stdDeviation="10.8767"/><feColorMatrix type="matrix" values="0 0 0 0 0.75 0 0 0 0 0.75 0 0 0 0 0.75 0 0 0 0.35 0"/><feBlend in2="BackgroundImageFix" mode="normal" result="effect1_dropShadow_6585_1595"/><feBlend in="SourceGraphic" in2="effect1_dropShadow_6585_1595" mode="normal" result="shape"/></filter><filter id="b" color-interpolation-filters="sRGB" filterUnits="userSpaceOnUse" height="105.927" width="247.653" x="301.2" y="31.7931"><feFlood flood-opacity="0" result="BackgroundImageFix"/><feColorMatrix in="SourceAlpha" result="hardAlpha" type="matrix" values="0 0 0 0 0 0 0 0 0 0 0 0 0 0 0 0 0 0 127 0"/><feMorphology in="SourceAlpha" operator="dilate" radius="1.67333" result="effect1_dropShadow_6585_1595"/><feOffset/><feGaussianBlur stdDeviation="10.8767"/><feColorMatrix type="matrix" values="0 0 0 0 0.75 0 0 0 0 0.75 0 0 0 0 0.75 0 0 0 0.35 0"/><feBlend in2="BackgroundImageFix" mode="normal" result="effect1_dropShadow_6585_1595"/><feBlend in="SourceGraphic" in2="effect1_dropShadow_6585_1595" mode="normal" result="shape"/></filter><filter id="c" color-interpolation-filters="sRGB" filterUnits="userSpaceOnUse" height="120.48" width="120.48" x="396.58" y="197.453"><feFlood flood-opacity="0" result="BackgroundImageFix"/><feColorMatrix in="SourceAlpha" result="hardAlpha" type="matrix" values="0 0 0 0 0 0 0 0 0 0 0 0 0 0 0 0 0 0 127 0"/><feMorphology in="SourceAlpha" operator="dilate" radius="1.67333" result="effect1_dropShadow_6585_1595"/><feOffset/><feGaussianBlur stdDeviation="10.8767"/><feColorMatrix type="matrix" values="0 0 0 0 0.75 0 0 0 0 0.75 0 0 0 0 0.75 0 0 0 0.35 0"/><feBlend in2="BackgroundImageFix" mode="normal" result="effect1_dropShadow_6585_1595"/><feBlend in="SourceGraphic" in2="effect1_dropShadow_6585_1595" mode="normal" result="shape"/></filter><clipPath id="d"><rect height="292.833" rx="10.04" width="426.7" x="23.4268" y="23.4268"/></clipPath><clipPath id="e"><path d="m23.4268 23.4268h426.551v23.0202h-426.551z"/></clipPath><clipPath id="f"><path d="m30.5496 32.3706h28.4919v6.57505h-28.4919z"/></clipPath><g filter="url(#a)"><g clip-path="url(#d)"><path d="m23.4268 41.834h426.7v274.427h-426.7z" fill="#fff"/><g clip-path="url(#e)"><path d="m23.4268 27.8101c0-2.4208 1.9625-4.3833 4.3833-4.3833h417.7839c2.421 0 4.384 1.9625 4.384 4.3833v18.6369h-426.5512z" fill="#b4b4b4"/><g clip-path="url(#f)" fill="#fff" stroke="#fff" stroke-width=".273961"><circle cx="55.7541" cy="35.6581" r="3.15055"/><circle cx="44.7961" cy="35.6581" r="3.15055"/><circle cx="33.8371" cy="35.6581" r="3.15055"/></g></g><rect fill="#f6f6f6" height="47.2951" rx="15.2459" width="315.591" x="50.4268" y="122.399"/><path d="m89.5929 152.867c-1.4798 0-2.6609-.349-3.5431-1.046-.8822-.711-1.4087-1.636-1.5795-2.775h2.8175c.2846 1.068 1.0245 1.601 2.2198 1.601.9249 0 1.6293-.306 2.1131-.918.5834-.74.8893-1.885.9178-3.436h-.0427c-.9107 1.067-2.042 1.601-3.3938 1.601-1.5083 0-2.7605-.47-3.7566-1.409-.9818-.953-1.4727-2.198-1.4727-3.735 0-1.494.5194-2.718 1.5581-3.671 1.053-.968 2.3692-1.452 3.9487-1.452 1.9637 0 3.4649.626 4.5037 1.879 1.0387 1.237 1.5581 3.08 1.5581 5.528 0 5.222-1.9495 7.833-5.8484 7.833zm-.0853-7.321c.8395 0 1.5368-.256 2.0917-.768.5692-.527.8538-1.203.8538-2.028s-.2775-1.501-.8324-2.028c-.555-.541-1.2522-.811-2.0918-.811-.8395 0-1.5297.27-2.0704.811-.5407.527-.8111 1.188-.8111 1.985 0 .84.2562 1.523.7684 2.049.5123.527 1.2095.79 2.0918.79zm7.3996.576v-3.095h3.1158v3.095zm0 6.425v-3.095h3.1158v3.095zm10.7898.341c-1.864 0-3.351-.69-4.461-2.07-1.096-1.38-1.643-3.237-1.643-5.571s.555-4.19 1.664-5.571c1.11-1.38 2.597-2.07 4.461-2.07 1.879 0 3.359.69 4.44 2.07 1.096 1.366 1.644 3.223 1.644 5.571 0 2.334-.548 4.191-1.644 5.571-1.081 1.38-2.568 2.07-4.461 2.07zm.021-2.476c2.035 0 3.053-1.721 3.053-5.165 0-1.622-.249-2.888-.747-3.799s-1.267-1.366-2.306-1.366c-1.053 0-1.835.455-2.347 1.366-.498.911-.748 2.177-.748 3.799s.25 2.889.748 3.799c.512.911 1.294 1.366 2.347 1.366zm13.465 2.476c-1.864 0-3.351-.69-4.461-2.07-1.095-1.38-1.643-3.237-1.643-5.571s.555-4.19 1.665-5.571c1.109-1.38 2.596-2.07 4.461-2.07 1.878 0 3.358.69 4.439 2.07 1.096 1.366 1.644 3.223 1.644 5.571 0 2.334-.548 4.191-1.644 5.571-1.081 1.38-2.568 2.07-4.461 2.07zm.022-2.476c2.034 0 3.052-1.721 3.052-5.165 0-1.622-.249-2.888-.747-3.799s-1.267-1.366-2.305-1.366c-1.053 0-1.836.455-2.348 1.366-.498.911-.747 2.177-.747 3.799s.249 2.889.747 3.799c.512.911 1.295 1.366 2.348 1.366zm11.244-2.049v-2.497h17.075v2.497zm21.977-8.473v-2.604h12.273v2.604h-4.589v12.657h-3.095v-12.657zm16.288 12.977c-1.765 0-3.152-.541-4.162-1.622-1.011-1.096-1.516-2.49-1.516-4.184 0-1.636.505-3.002 1.516-4.098 1.01-1.11 2.305-1.665 3.884-1.665 1.722 0 3.053.598 3.992 1.793.939 1.196 1.409 2.796 1.409 4.803h-7.941c.114.868.406 1.544.876 2.028.469.469 1.109.704 1.921.704 1.067 0 1.771-.448 2.113-1.345h2.86c-.214 1.025-.754 1.878-1.622 2.562-.868.683-1.978 1.024-3.33 1.024zm-.235-9.327c-1.409 0-2.255.782-2.54 2.347h4.867c-.043-.697-.278-1.259-.705-1.686-.427-.441-.967-.661-1.622-.661zm13.595 9.007c-.142-.185-.256-.591-.341-1.217h-.043c-.313.47-.711.833-1.195 1.089s-1.16.384-2.028.384c-1.153 0-2.077-.292-2.775-.875-.697-.584-1.046-1.409-1.046-2.476 0-1.11.385-1.921 1.153-2.433.768-.527 1.85-.89 3.244-1.089 1.025-.142 1.722-.284 2.092-.427.37-.156.555-.427.555-.811 0-.398-.156-.711-.469-.939-.314-.242-.769-.363-1.367-.363-1.323 0-2.027.512-2.113 1.537h-2.582c.042-1.039.462-1.9 1.259-2.583s1.949-1.024 3.458-1.024c3.073 0 4.61 1.344 4.61 4.034v5.571c0 .825.128 1.33.384 1.515v.107zm-2.903-1.772c.797 0 1.423-.206 1.879-.619.469-.412.704-.903.704-1.472v-1.644c-.313.185-.989.398-2.028.64-.825.185-1.408.399-1.75.641-.341.227-.512.583-.512 1.067 0 .925.569 1.387 1.707 1.387zm7.161 1.772v-10.95h2.796v1.473h.064c.697-1.181 1.757-1.772 3.18-1.772.683 0 1.288.178 1.814.534.541.342.947.804 1.217 1.387h.043c.796-1.28 1.892-1.921 3.287-1.921 1.138 0 2.02.349 2.646 1.046.641.683.961 1.63.961 2.839v7.364h-2.903v-6.873c0-1.252-.562-1.878-1.686-1.878-.612 0-1.096.22-1.452.661-.341.427-.512 1.004-.512 1.729v6.361h-2.903v-6.873c0-1.252-.562-1.878-1.686-1.878-.583 0-1.06.22-1.43.661-.356.427-.534 1.004-.534 1.729v6.361zm25.825.32c-1.565 0-2.789-.341-3.671-1.024-.882-.698-1.366-1.644-1.451-2.839h2.689c.185 1.209.982 1.814 2.391 1.814.64 0 1.131-.114 1.472-.342.356-.227.534-.533.534-.917 0-.143-.029-.271-.085-.385-.043-.113-.129-.213-.257-.298-.113-.1-.22-.178-.32-.235-.085-.057-.242-.114-.469-.171-.228-.057-.406-.099-.534-.128-.114-.028-.32-.064-.619-.107-.285-.057-.484-.099-.598-.128-.597-.114-1.088-.227-1.472-.341-.37-.128-.762-.306-1.174-.534-.413-.242-.726-.562-.939-.96-.2-.413-.299-.904-.299-1.473 0-1.138.412-2.006 1.238-2.604.839-.598 1.914-.897 3.223-.897 1.408 0 2.511.328 3.308.982.811.641 1.274 1.523 1.387 2.647h-2.625c-.114-1.067-.818-1.601-2.113-1.601-.583 0-1.046.107-1.387.32-.328.214-.491.513-.491.897 0 .128.021.249.064.363.057.099.142.192.256.277.128.071.249.135.363.192.114.043.277.093.491.15.213.042.398.085.555.128.156.028.37.071.64.128.27.042.484.078.64.106.456.1.826.193 1.11.278.299.071.64.199 1.025.384.384.171.683.37.896.598.228.213.42.512.576.896.171.37.257.804.257 1.302 0 1.082-.427 1.943-1.281 2.583-.84.626-1.95.939-3.33.939zm5.071-9.349v-1.921h1.516v-3.415h2.839v3.415h1.878v1.921h-1.878v5.806c0 .726.362 1.088 1.088 1.088l.854-.021v2.135c-.441.028-1.046.042-1.814.042-.84 0-1.544-.199-2.113-.597-.57-.413-.854-1.089-.854-2.028v-6.425zm14.726 9.029c-.142-.185-.256-.591-.341-1.217h-.043c-.313.47-.712.833-1.195 1.089-.484.256-1.16.384-2.028.384-1.153 0-2.078-.292-2.775-.875-.697-.584-1.046-1.409-1.046-2.476 0-1.11.384-1.921 1.153-2.433.768-.527 1.85-.89 3.244-1.089 1.025-.142 1.722-.284 2.092-.427.37-.156.555-.427.555-.811 0-.398-.157-.711-.47-.939-.313-.242-.768-.363-1.366-.363-1.323 0-2.027.512-2.113 1.537h-2.582c.042-1.039.462-1.9 1.259-2.583s1.949-1.024 3.458-1.024c3.073 0 4.61 1.344 4.61 4.034v5.571c0 .825.128 1.33.384 1.515v.107zm-2.903-1.772c.797 0 1.423-.206 1.879-.619.469-.412.704-.903.704-1.472v-1.644c-.313.185-.989.398-2.028.64-.825.185-1.409.399-1.75.641-.342.227-.512.583-.512 1.067 0 .925.569 1.387 1.707 1.387zm9.999-9.178v1.494h.064c.754-1.195 1.836-1.793 3.245-1.793 1.124 0 2.034.385 2.732 1.153.697.754 1.045 1.736 1.045 2.946v7.15h-2.902v-6.724c0-.597-.171-1.081-.513-1.451-.327-.37-.789-.555-1.387-.555-.64 0-1.174.235-1.601.704-.412.47-.619 1.075-.619 1.815v6.211h-2.903v-10.95zm12.974 11.27c-1.38 0-2.497-.519-3.351-1.558-.854-1.053-1.281-2.462-1.281-4.226 0-1.708.434-3.095 1.302-4.162.882-1.082 2.007-1.623 3.373-1.623s2.397.541 3.094 1.623h.064v-5.635h2.903v15.261h-2.796v-1.43h-.042c-.712 1.167-1.801 1.75-3.266 1.75zm.64-2.433c.854 0 1.501-.292 1.943-.875.455-.584.683-1.388.683-2.412 0-2.334-.847-3.501-2.54-3.501-.783 0-1.381.313-1.793.939-.413.627-.619 1.459-.619 2.498 0 1.067.199 1.892.597 2.476.413.583.989.875 1.729.875zm17.063 2.113h-2.796v-1.281h-.064c-.399.541-.84.939-1.324 1.195-.469.257-1.074.385-1.814.385-1.195 0-2.127-.356-2.796-1.068-.669-.711-1.003-1.671-1.003-2.881v-7.3h2.881v6.809c0 1.323.605 1.985 1.815 1.985.668 0 1.202-.228 1.6-.683.399-.455.598-1.053.598-1.793v-6.318h2.903zm1.878 3.586v-14.536h2.796v1.366h.064c.811-1.11 1.885-1.665 3.223-1.665 1.437 0 2.589.534 3.457 1.601s1.302 2.462 1.302 4.184c0 1.764-.434 3.173-1.302 4.226-.868 1.039-2.013 1.558-3.436 1.558s-2.476-.519-3.159-1.558h-.043v4.824zm5.485-5.678c.74 0 1.323-.292 1.75-.875.441-.583.662-1.387.662-2.412 0-1.096-.206-1.956-.619-2.583-.413-.626-1.046-.939-1.9-.939-.868 0-1.508.328-1.921.982-.412.64-.619 1.487-.619 2.54 0 1.01.228 1.814.683 2.412.456.583 1.11.875 1.964.875z" fill="#1d1d1f"/><path d="m316.86 148.662c-.825 0-1.53-.291-2.113-.875-.583-.583-.875-1.281-.875-2.092 0-.825.292-1.529.875-2.113.583-.583 1.288-.875 2.113-.875.811 0 1.508.292 2.092.875.583.584.875 1.288.875 2.113 0 .811-.292 1.509-.875 2.092-.584.584-1.281.875-2.092.875z" fill="#1d1d1f"/><rect fill="#f6f6f6" height="47.2951" rx="15.2459" width="315.591" x="50.2002" y="182.765"/><path d="m90.4573 212.913v-10.203h-3.3084v-1.921c2.1914-.085 3.4222-.953 3.6926-2.604h2.54v14.728zm8.3584 0v-10.203h-3.3083v-1.921c2.1913-.085 3.4222-.953 3.6925-2.604h2.5401v14.728zm5.3063-6.425v-3.095h3.116v3.095zm0 6.425v-3.095h3.116v3.095zm10.79.341c-1.864 0-3.351-.69-4.461-2.07-1.096-1.381-1.644-3.238-1.644-5.571 0-2.334.555-4.191 1.665-5.571s2.597-2.07 4.461-2.07c1.878 0 3.358.69 4.44 2.07 1.095 1.366 1.643 3.223 1.643 5.571 0 2.333-.548 4.19-1.643 5.571-1.082 1.38-2.569 2.07-4.461 2.07zm.021-2.476c2.035 0 3.052-1.722 3.052-5.165 0-1.622-.249-2.889-.747-3.799-.498-.911-1.266-1.366-2.305-1.366-1.053 0-1.835.455-2.348 1.366-.498.91-.747 2.177-.747 3.799s.249 2.888.747 3.799c.513.911 1.295 1.366 2.348 1.366zm13.465 2.476c-1.864 0-3.351-.69-4.461-2.07-1.096-1.381-1.644-3.238-1.644-5.571 0-2.334.555-4.191 1.665-5.571s2.597-2.07 4.461-2.07c1.879 0 3.358.69 4.44 2.07 1.096 1.366 1.643 3.223 1.643 5.571 0 2.333-.547 4.19-1.643 5.571-1.082 1.38-2.569 2.07-4.461 2.07zm.021-2.476c2.035 0 3.053-1.722 3.053-5.165 0-1.622-.25-2.889-.748-3.799-.498-.911-1.266-1.366-2.305-1.366-1.053 0-1.835.455-2.348 1.366-.498.91-.747 2.177-.747 3.799s.249 2.888.747 3.799c.513.911 1.295 1.366 2.348 1.366zm11.245-2.049v-2.497h17.075v2.497zm22.767 4.184v-15.262h6.702c1.736 0 3.066.477 3.991 1.43.911.94 1.366 2.099 1.366 3.48 0 1.451-.455 2.618-1.366 3.5-.91.882-2.156 1.323-3.735 1.323h-3.757v5.529zm3.201-12.572v4.525h3.202c.797 0 1.409-.199 1.836-.598.427-.412.64-.975.64-1.686 0-.712-.213-1.259-.64-1.644-.427-.398-1.025-.597-1.793-.597zm12.95 1.622v1.75h.064c.342-.64.719-1.11 1.132-1.409.412-.313.932-.469 1.558-.469.299 0 .526.028.683.085v2.54h-.064c-.982-.099-1.772.114-2.369.641-.598.526-.897 1.351-.897 2.476v5.336h-2.903v-10.95zm9.519 11.27c-1.765 0-3.152-.541-4.163-1.622-1.01-1.096-1.515-2.491-1.515-4.184 0-1.636.505-3.002 1.515-4.098 1.011-1.11 2.306-1.665 3.885-1.665 1.722 0 3.052.598 3.991 1.793.94 1.195 1.409 2.796 1.409 4.803h-7.94c.114.868.406 1.543.875 2.027.47.47 1.11.705 1.921.705 1.067 0 1.772-.449 2.113-1.345h2.86c-.213 1.024-.754 1.878-1.622 2.561s-1.978 1.025-3.329 1.025zm-.235-9.328c-1.409 0-2.256.783-2.54 2.348h4.866c-.042-.697-.277-1.259-.704-1.686-.427-.441-.968-.662-1.622-.662zm11.14 9.328c-1.565 0-2.789-.342-3.671-1.025-.882-.697-1.366-1.643-1.451-2.839h2.689c.185 1.21.982 1.815 2.391 1.815.64 0 1.131-.114 1.472-.342.356-.227.534-.533.534-.918 0-.142-.028-.27-.085-.384-.043-.114-.128-.213-.257-.299-.113-.099-.22-.177-.32-.234-.085-.057-.242-.114-.469-.171-.228-.057-.406-.1-.534-.128-.114-.029-.32-.064-.619-.107-.284-.057-.484-.1-.597-.128-.598-.114-1.089-.228-1.473-.342-.37-.128-.762-.305-1.174-.533-.413-.242-.726-.562-.939-.961-.2-.412-.299-.903-.299-1.472 0-1.139.413-2.007 1.238-2.604.839-.598 1.914-.897 3.223-.897 1.409 0 2.511.327 3.308.982.811.64 1.274 1.523 1.388 2.647h-2.626c-.114-1.068-.818-1.601-2.113-1.601-.583 0-1.046.107-1.387.32-.328.213-.491.512-.491.896 0 .129.021.25.064.363.057.1.142.192.256.278.128.071.249.135.363.192.114.043.277.092.491.149.213.043.398.086.555.128.156.029.37.072.64.128.27.043.484.079.64.107.456.1.826.192 1.11.278.299.071.641.199 1.025.384.384.171.683.37.896.597.228.214.42.513.577.897.17.37.256.804.256 1.302 0 1.081-.427 1.942-1.281 2.583-.84.626-1.949.939-3.33.939zm11.168 0c-1.764 0-3.151-.541-4.162-1.622-1.01-1.096-1.515-2.491-1.515-4.184 0-1.636.505-3.002 1.515-4.098 1.011-1.11 2.305-1.665 3.885-1.665 1.722 0 3.052.598 3.991 1.793s1.409 2.796 1.409 4.803h-7.94c.114.868.405 1.543.875 2.027.47.47 1.11.705 1.921.705 1.067 0 1.772-.449 2.113-1.345h2.86c-.213 1.024-.754 1.878-1.622 2.561s-1.978 1.025-3.33 1.025zm-.234-9.328c-1.409 0-2.256.783-2.54 2.348h4.866c-.043-.697-.277-1.259-.704-1.686-.427-.441-.968-.662-1.622-.662zm9.539-1.942v1.494h.064c.755-1.195 1.836-1.793 3.245-1.793 1.124 0 2.035.384 2.732 1.153.697.754 1.046 1.736 1.046 2.945v7.151h-2.903v-6.724c0-.597-.171-1.081-.512-1.451-.328-.37-.79-.555-1.388-.555-.64 0-1.174.235-1.601.704-.412.47-.619 1.074-.619 1.814v6.212h-2.902v-10.95zm8.027 1.921v-1.921h1.516v-3.415h2.838v3.415h1.879v1.921h-1.879v5.806c0 .725.363 1.088 1.089 1.088l.854-.021v2.134c-.441.029-1.046.043-1.815.043-.839 0-1.543-.199-2.113-.598-.569-.412-.853-1.088-.853-2.027v-6.425zm14.726 9.029c-.142-.185-.256-.591-.342-1.217h-.042c-.313.47-.712.832-1.196 1.089-.483.256-1.159.384-2.027.384-1.153 0-2.078-.292-2.775-.875-.697-.584-1.046-1.409-1.046-2.476 0-1.11.384-1.921 1.153-2.434.768-.526 1.849-.889 3.244-1.088 1.024-.142 1.722-.285 2.092-.427.37-.157.555-.427.555-.811 0-.399-.157-.712-.47-.939-.313-.242-.768-.363-1.366-.363-1.323 0-2.028.512-2.113 1.537h-2.583c.043-1.039.463-1.9 1.26-2.583.796-.683 1.949-1.024 3.457-1.024 3.074 0 4.611 1.344 4.611 4.034v5.57c0 .826.128 1.331.384 1.516v.107zm-2.903-1.772c.797 0 1.423-.206 1.878-.619.47-.413.705-.904.705-1.473v-1.643c-.313.185-.989.398-2.028.64-.825.185-1.409.399-1.75.64-.342.228-.513.584-.513 1.068 0 .925.57 1.387 1.708 1.387zm6.311-7.257v-1.921h1.516v-3.415h2.839v3.415h1.878v1.921h-1.878v5.806c0 .725.363 1.088 1.088 1.088l.854-.021v2.134c-.441.029-1.046.043-1.814.043-.84 0-1.544-.199-2.113-.598-.57-.412-.854-1.088-.854-2.027v-6.425zm7.728 9.029v-10.95h2.903v10.95zm0-12.658v-2.604h2.903v2.604zm14.079 11.334c-1.067 1.096-2.44 1.644-4.119 1.644s-3.053-.548-4.12-1.644c-1.067-1.11-1.601-2.49-1.601-4.141 0-1.65.534-3.023 1.601-4.119 1.067-1.11 2.441-1.665 4.12-1.665s3.052.555 4.119 1.665c1.067 1.096 1.601 2.469 1.601 4.119 0 1.651-.534 3.031-1.601 4.141zm-4.119-.576c.868 0 1.544-.32 2.027-.961.498-.654.747-1.522.747-2.604 0-1.081-.249-1.949-.747-2.604-.483-.654-1.159-.981-2.027-.981-.883 0-1.566.327-2.049.981-.484.641-.726 1.509-.726 2.604 0 1.082.242 1.95.726 2.604.483.641 1.166.961 2.049.961zm9.908-9.05v1.494h.064c.754-1.195 1.836-1.793 3.244-1.793 1.125 0 2.035.384 2.733 1.153.697.754 1.045 1.736 1.045 2.945v7.151h-2.902v-6.724c0-.597-.171-1.081-.513-1.451-.327-.37-.789-.555-1.387-.555-.64 0-1.174.235-1.601.704-.413.47-.619 1.074-.619 1.814v6.212h-2.903v-10.95z" fill="#1d1d1f"/><path d="m313.133 209.028c-.825 0-1.529-.292-2.113-.875-.583-.584-.875-1.281-.875-2.092 0-.825.292-1.53.875-2.113.584-.583 1.288-.875 2.113-.875.812 0 1.509.292 2.092.875.584.583.875 1.288.875 2.113 0 .811-.291 1.508-.875 2.092-.583.583-1.28.875-2.092.875z" fill="#1d1d1f"/><rect fill="#f6f6f6" fill-opacity=".964706" height="47.2951" rx="15.2459" width="315.591" x="50.2002" y="242.224"/><path d="m99.3943 272.371c.0284-.868.2348-1.686.6187-2.454.384-.783.797-1.409 1.238-1.879.456-.469 1.011-.96 1.665-1.473.228-.185.584-.455 1.067-.811.498-.355.868-.633 1.11-.832s.512-.448.811-.747c.313-.313.534-.626.662-.939.128-.328.192-.669.192-1.025 0-.697-.178-1.252-.534-1.665-.355-.412-.853-.619-1.494-.619-.74 0-1.323.257-1.75.769-.413.512-.626 1.245-.64 2.198h-2.7323c0-1.707.4343-3.038 1.3023-3.991.882-.968 2.177-1.452 3.884-1.452 1.537 0 2.747.449 3.629 1.345.896.897 1.345 2.006 1.345 3.33 0 .654-.1 1.252-.299 1.793-.185.526-.484 1.01-.897 1.451-.412.441-.782.79-1.11 1.046-.327.256-.782.576-1.366.961-1.593 1.024-2.575 1.892-2.945 2.604h6.745v2.39zm12.0547-6.425v-3.094h3.116v3.094zm0 6.425v-3.095h3.116v3.095zm10.79.342c-1.865 0-3.352-.691-4.461-2.071-1.096-1.38-1.644-3.237-1.644-5.571 0-2.333.555-4.19 1.665-5.571 1.11-1.38 2.597-2.07 4.461-2.07 1.878 0 3.358.69 4.439 2.07 1.096 1.367 1.644 3.223 1.644 5.571 0 2.334-.548 4.191-1.644 5.571-1.081 1.38-2.568 2.071-4.46 2.071zm.021-2.476c2.035 0 3.052-1.722 3.052-5.166 0-1.622-.249-2.888-.747-3.799s-1.266-1.366-2.305-1.366c-1.053 0-1.836.455-2.348 1.366-.498.911-.747 2.177-.747 3.799 0 1.623.249 2.889.747 3.8.512.91 1.295 1.366 2.348 1.366zm13.465 2.476c-1.864 0-3.351-.691-4.461-2.071-1.096-1.38-1.644-3.237-1.644-5.571 0-2.333.555-4.19 1.665-5.571 1.11-1.38 2.597-2.07 4.461-2.07 1.878 0 3.358.69 4.44 2.07 1.095 1.367 1.643 3.223 1.643 5.571 0 2.334-.548 4.191-1.643 5.571-1.082 1.38-2.569 2.071-4.461 2.071zm.021-2.476c2.035 0 3.052-1.722 3.052-5.166 0-1.622-.249-2.888-.747-3.799s-1.266-1.366-2.305-1.366c-1.053 0-1.836.455-2.348 1.366-.498.911-.747 2.177-.747 3.799 0 1.623.249 2.889.747 3.8.512.91 1.295 1.366 2.348 1.366zm11.244-2.049v-2.498h17.076v2.498zm22.767 4.183v-15.261h5.955c2.021 0 3.643.733 4.867 2.198 1.224 1.452 1.836 3.316 1.836 5.593 0 2.632-.812 4.631-2.434 5.997-1.181.982-2.689 1.473-4.525 1.473zm3.095-2.668h2.391c1.409 0 2.433-.405 3.073-1.217.641-.825.961-2.02.961-3.585 0-1.566-.342-2.811-1.025-3.736-.668-.939-1.643-1.408-2.924-1.408h-2.476zm16.155 2.988c-1.764 0-3.152-.54-4.162-1.622-1.01-1.096-1.515-2.49-1.515-4.183 0-1.637.505-3.003 1.515-4.098 1.01-1.11 2.305-1.665 3.885-1.665 1.722 0 3.052.597 3.991 1.793.939 1.195 1.409 2.796 1.409 4.802h-7.94c.114.868.405 1.544.875 2.028.47.469 1.11.704 1.921.704 1.067 0 1.772-.448 2.113-1.345h2.86c-.213 1.025-.754 1.879-1.622 2.562s-1.978 1.024-3.33 1.024zm-.235-9.327c-1.408 0-2.255.782-2.539 2.348h4.866c-.043-.698-.277-1.26-.704-1.687-.427-.441-.968-.661-1.623-.661zm11.845 9.327c-1.764 0-3.151-.54-4.162-1.622-1.01-1.096-1.515-2.49-1.515-4.183 0-1.637.505-3.003 1.515-4.098 1.011-1.11 2.305-1.665 3.885-1.665 1.722 0 3.052.597 3.991 1.793.939 1.195 1.409 2.796 1.409 4.802h-7.94c.114.868.405 1.544.875 2.028.47.469 1.11.704 1.921.704 1.067 0 1.772-.448 2.113-1.345h2.86c-.213 1.025-.754 1.879-1.622 2.562s-1.978 1.024-3.33 1.024zm-.234-9.327c-1.409 0-2.256.782-2.54 2.348h4.866c-.043-.698-.277-1.26-.704-1.687-.427-.441-.968-.661-1.622-.661zm6.701 12.593v-14.536h2.796v1.367h.064c.811-1.11 1.885-1.665 3.223-1.665 1.437 0 2.589.533 3.457 1.6.868 1.068 1.302 2.462 1.302 4.184 0 1.764-.434 3.173-1.302 4.226-.868 1.039-2.013 1.558-3.436 1.558s-2.476-.519-3.159-1.558h-.043v4.824zm5.485-5.678c.74 0 1.323-.291 1.75-.875.441-.583.662-1.387.662-2.412 0-1.095-.206-1.956-.619-2.582s-1.046-.939-1.9-.939c-.868 0-1.508.327-1.921.981-.412.641-.619 1.487-.619 2.54 0 1.011.228 1.815.683 2.412.456.584 1.11.875 1.964.875zm12.641 2.092-3.201-10.95h2.881l1.324 5.08.49 2.049h.043c.157-.782.313-1.472.47-2.07l1.366-5.059h2.476l1.43 5.059.512 2.07h.043c.17-.768.334-1.451.491-2.049l1.387-5.08h2.817l-3.265 10.95h-2.647l-1.451-5.379-.491-1.899h-.043c-.185.683-.356 1.316-.512 1.899l-1.494 5.379zm22.55-1.323c-1.067 1.095-2.44 1.643-4.12 1.643-1.679 0-3.052-.548-4.119-1.643-1.067-1.11-1.601-2.49-1.601-4.141s.534-3.024 1.601-4.119c1.067-1.11 2.44-1.665 4.119-1.665 1.68 0 3.053.555 4.12 1.665 1.067 1.095 1.601 2.468 1.601 4.119s-.534 3.031-1.601 4.141zm-4.12-.577c.868 0 1.544-.32 2.028-.96.498-.655.747-1.523.747-2.604s-.249-1.949-.747-2.604c-.484-.655-1.16-.982-2.028-.982-.882 0-1.565.327-2.049.982-.483.64-.725 1.508-.725 2.604 0 1.081.242 1.949.725 2.604.484.64 1.167.96 2.049.96zm9.866-9.05v1.751h.064c.342-.641.719-1.11 1.131-1.409.413-.313.933-.47 1.559-.47.298 0 .526.029.683.086v2.54h-.064c-.982-.1-1.772.114-2.37.64-.597.527-.896 1.352-.896 2.476v5.336h-2.903v-10.95zm11.901 10.95-3.073-4.994-1.259 1.302v3.692h-2.882v-15.261h2.882v8.452l3.884-4.141h3.479l-4.034 4.163 4.525 6.787z" fill="#1d1d1f"/><path d="m301.133 268.486c-.825 0-1.529-.291-2.113-.875-.583-.583-.875-1.28-.875-2.091 0-.826.292-1.53.875-2.114.584-.583 1.288-.875 2.113-.875.812 0 1.509.292 2.092.875.584.584.875 1.288.875 2.114 0 .811-.291 1.508-.875 2.091-.583.584-1.28.875-2.092.875z" fill="#1d1d1f"/><g fill="#b4b4b4"><path d="m61.9134 98.4936h4.8806v4.8804h-4.8806zm6.8328-8.785h-.9761v-1.9523h-1.9522v1.9523h-7.8089v-1.9523h-1.9522v1.9523h-.9762c-1.0737 0-1.9522.8785-1.9522 1.9522v13.6652c0 1.074.8785 1.953 1.9522 1.953h13.6656c1.0737 0 1.9522-.879 1.9522-1.953v-13.6652c0-1.0737-.8785-1.9522-1.9522-1.9522zm0 1.9522v1.9522h-13.6656v-1.9522zm-13.6656 13.6652v-9.7608h13.6656v9.7608z"/><path d="m79.3071 92.0433v-2.6644h12.5573v2.6644h-4.6954v12.9507h-3.1666v-12.9507zm20.9239 11.5967c-1.0923 1.121-2.4972 1.681-4.2152 1.681s-3.123-.56-4.2149-1.681c-1.0919-1.136-1.6379-2.548-1.6379-4.2371 0-1.6888.546-3.0938 1.6379-4.2148 1.0919-1.1357 2.4969-1.7035 4.2149-1.7035s3.1229.5678 4.2152 1.7035c1.092 1.121 1.638 2.526 1.638 4.2148 0 1.6891-.546 3.1011-1.638 4.2371zm-4.2152-.59c.8881 0 1.5796-.328 2.0747-.983.5095-.669.7643-1.558.7643-2.6641 0-1.1065-.2548-1.9946-.7643-2.6643-.4951-.6697-1.1866-1.0046-2.0747-1.0046-.9027 0-1.6015.3349-2.0965 1.0046-.4951.6552-.7426 1.5433-.7426 2.6643 0 1.1061.2475 1.9951.7426 2.6641.495.655 1.1938.983 2.0965.983zm11.4262 2.271c-1.412 0-2.555-.531-3.428-1.594-.874-1.077-1.311-2.519-1.311-4.3241 0-1.7471.444-3.1666 1.332-4.2585.903-1.1065 2.053-1.6598 3.451-1.6598s2.453.5533 3.167 1.6598h.065v-5.7655h2.97v15.6151h-2.861v-1.464h-.043c-.728 1.194-1.842 1.791-3.342 1.791zm.655-2.489c.874 0 1.536-.299 1.988-.896.466-.597.699-1.419.699-2.4676 0-2.3877-.867-3.5815-2.599-3.5815-.801 0-1.413.3203-1.835.9609s-.633 1.4923-.633 2.5551c0 1.0921.204 1.9361.611 2.5331.423.597 1.012.896 1.769.896zm14.576 2.162c-.146-.19-.262-.605-.35-1.245h-.043c-.321.48-.728.852-1.223 1.114s-1.187.393-2.075.393c-1.179 0-2.126-.299-2.839-.896s-1.07-1.441-1.07-2.533c0-1.136.393-1.9655 1.179-2.4896.786-.5387 1.893-.9099 3.32-1.1138 1.048-.1456 1.761-.2911 2.14-.4367.378-.1602.568-.4368.568-.8299 0-.4077-.161-.728-.481-.9609-.32-.2475-.786-.3713-1.398-.3713-1.354 0-2.074.5242-2.162 1.5724h-2.642c.044-1.0628.473-1.9436 1.288-2.6425.816-.6988 1.995-1.0482 3.538-1.0482 3.145 0 4.717 1.3758 4.717 4.1275v5.7c0 .844.132 1.361.394 1.55v.11zm-2.97-1.813c.815 0 1.456-.211 1.921-.633.481-.423.721-.925.721-1.507v-1.6817c-.32.1892-1.012.4076-2.075.6547-.844.19-1.441.408-1.79.656-.35.233-.524.597-.524 1.092 0 .946.582 1.419 1.747 1.419zm7.459 5.482v-2.337h1.049c1.106 0 1.659-.51 1.659-1.529 0-.495-.284-1.507-.851-3.035l-3.014-7.9716h3.123l1.659 5.0447.721 2.4459h.044c.204-.946.422-1.7616.655-2.4459l1.572-5.0447h2.992l-3.909 11.4876c-.437 1.281-.932 2.162-1.485 2.642-.539.495-1.361.743-2.468.743zm14.284-7.95v-2.5549h17.471v2.5549zm23.294 4.281v-15.6151h4.455l2.206 7.8402c.16.5823.32 1.2302.481 1.9436.174.6988.305 1.2523.393 1.6593l.109.612h.044c.276-1.4997.596-2.9046.96-4.2149l2.206-7.8402h4.521v15.6151h-2.948v-8.9542l.131-3.2322h-.044c-.233 1.223-.459 2.213-.677 2.9701l-2.686 9.2163h-3.036l-2.621-9.2163-.677-2.9701h-.043c.087 1.3104.131 2.3877.131 3.2322v8.9542zm27.068-1.354c-1.092 1.121-2.497 1.681-4.215 1.681-1.717 0-3.122-.56-4.214-1.681-1.092-1.136-1.638-2.548-1.638-4.2371 0-1.6888.546-3.0938 1.638-4.2148 1.092-1.1357 2.497-1.7035 4.214-1.7035 1.718 0 3.123.5678 4.215 1.7035 1.092 1.121 1.638 2.526 1.638 4.2148 0 1.6891-.546 3.1011-1.638 4.2371zm-4.215-.59c.889 0 1.58-.328 2.075-.983.51-.669.765-1.558.765-2.6641 0-1.1065-.255-1.9946-.765-2.6643-.495-.6697-1.186-1.0046-2.075-1.0046-.902 0-1.601.3349-2.096 1.0046-.495.6552-.743 1.5433-.743 2.6643 0 1.1061.248 1.9951.743 2.6641.495.655 1.194.983 2.096.983zm10.138-9.2596v1.5287h.066c.772-1.223 1.878-1.8345 3.319-1.8345 1.151 0 2.082.3931 2.796 1.1793.713.7717 1.07 1.7762 1.07 3.0138v7.3163h-2.97v-6.8796c0-.6114-.175-1.1064-.524-1.485-.335-.3785-.808-.5678-1.42-.5678-.655 0-1.201.2402-1.638.7207-.422.4804-.633 1.0992-.633 1.8563v6.3554h-2.97v-11.2036zm13.275 11.5306c-1.413 0-2.555-.531-3.429-1.594-.874-1.077-1.31-2.519-1.31-4.3241 0-1.7471.444-3.1666 1.332-4.2585.902-1.1065 2.053-1.6598 3.45-1.6598 1.398 0 2.454.5533 3.167 1.6598h.065v-5.7655h2.971v15.6151h-2.861v-1.464h-.044c-.728 1.194-1.842 1.791-3.341 1.791zm.655-2.489c.873 0 1.536-.299 1.987-.896.466-.597.699-1.419.699-2.4676 0-2.3877-.866-3.5815-2.599-3.5815-.801 0-1.412.3203-1.834.9609-.423.6406-.634 1.4923-.634 2.5551 0 1.0921.204 1.9361.612 2.5331.422.597 1.012.896 1.769.896zm14.575 2.162c-.145-.19-.262-.605-.349-1.245h-.044c-.32.48-.728.852-1.223 1.114s-1.187.393-2.075.393c-1.179 0-2.125-.299-2.839-.896-.713-.597-1.07-1.441-1.07-2.533 0-1.136.393-1.9655 1.18-2.4896.786-.5387 1.892-.9099 3.319-1.1138 1.048-.1456 1.762-.2911 2.14-.4367.379-.1602.568-.4368.568-.8299 0-.4077-.16-.728-.48-.9609-.321-.2475-.787-.3713-1.398-.3713-1.354 0-2.075.5242-2.162 1.5724h-2.643c.044-1.0628.474-1.9436 1.289-2.6425.815-.6988 1.994-1.0482 3.538-1.0482 3.145 0 4.717 1.3758 4.717 4.1275v5.7c0 .844.131 1.361.393 1.55v.11zm-2.97-1.813c.815 0 1.456-.211 1.922-.633.48-.423.721-.925.721-1.507v-1.6817c-.321.1892-1.012.4076-2.075.6547-.845.19-1.441.408-1.791.656-.349.233-.524.597-.524 1.092 0 .946.582 1.419 1.747 1.419zm7.46 5.482v-2.337h1.048c1.106 0 1.66-.51 1.66-1.529 0-.495-.284-1.507-.852-3.035l-3.014-7.9716h3.123l1.66 5.0447.721 2.4459h.043c.204-.946.423-1.7616.655-2.4459l1.573-5.0447h2.992l-3.909 11.4876c-.437 1.281-.932 2.162-1.485 2.642-.539.495-1.362.743-2.468.743z"/></g></g></g><g filter="url(#b)"><rect fill="#fff" height="59.0736" rx="29.5368" width="200.8" x="324.627" y="55.2197"/><g fill="#1d1d1f"><path d="m410.664 97.5608c-1.177 0-2.273-.2191-3.288-.6575-.992-.4383-1.868-1.0496-2.63-1.834-.738-.8074-1.326-1.7763-1.764-2.9067-.416-1.1304-.623-2.3877-.623-3.7718 0-1.3842.207-2.6415.623-3.7719.438-1.1304 1.026-2.0877 1.764-2.8721.762-.8074 1.638-1.4303 2.63-1.8686 1.015-.4383 2.111-.6575 3.288-.6575.899 0 1.695.1384 2.387.4153.692.2768 1.269.5767 1.73.8997.554.3921 1.027.8189 1.419 1.2803h.173v-2.2493h3.634v17.6481h-3.634v-2.4223h-.173c-.392.5075-.865.9689-1.419 1.3842-.461.346-1.038.669-1.73.9689-.692.2768-1.488.4152-2.387.4152zm.692-3.2874c1.476 0 2.676-.496 3.598-1.4879.946-1.0151 1.419-2.48 1.419-4.3947 0-1.9148-.473-3.3682-1.419-4.3601-.922-1.0151-2.122-1.5226-3.598-1.5226-1.569 0-2.826.5075-3.772 1.5226-.946.9919-1.419 2.4453-1.419 4.3601 0 1.9147.473 3.3796 1.419 4.3947.946.9919 2.203 1.4879 3.772 1.4879z"/><path d="m389.914 79.5661h3.633v2.5953h.173c.277-.5075.646-.9689 1.108-1.3842.392-.346.888-.6574 1.488-.9343.622-.2999 1.372-.4498 2.249-.4498h2.076v3.4604h-2.249c-.692 0-1.338.1153-1.938.346-.577.2307-1.084.5537-1.523.9689-.438.4153-.784.9228-1.038 1.5226-.23.5998-.346 1.2688-.346 2.007v9.5161h-3.633z"/><path d="m377.8 97.5608c-1.246 0-2.423-.2307-3.53-.6921-1.084-.4844-2.042-1.1304-2.872-1.9378-.808-.8305-1.442-1.7994-1.903-2.9067-.462-1.1304-.693-2.3416-.693-3.6334 0-1.2919.231-2.4915.693-3.5989.461-1.1304 1.095-2.0993 1.903-2.9067.83-.8305 1.788-1.4764 2.872-1.9378 1.107-.4845 2.284-.7267 3.53-.7267 1.245 0 2.41.2422 3.495.7267 1.107.4614 2.064 1.1073 2.872 1.9378.83.8074 1.476 1.7763 1.937 2.9067.462 1.1074.693 2.307.693 3.5989v1.2111h-14.361c.138.7382.369 1.3957.692 1.9724.323.5768.727 1.0727 1.211 1.488.485.3922 1.015.6921 1.592.8997.6.2076 1.223.3114 1.869.3114.899 0 1.672-.1153 2.318-.346.646-.2538 1.165-.5421 1.557-.8651.462-.346.842-.7498 1.142-1.2111h3.807c-.439 1.0842-1.05 2.0416-1.834 2.8721-.347.346-.739.6921-1.177 1.0381-.438.3461-.946.6575-1.523.9343-.576.2538-1.222.4614-1.937.6229-.716.1615-1.5.2422-2.353.2422zm5.19-10.9002c-.092-.5076-.265-1.0151-.519-1.5226s-.6-.9459-1.038-1.315c-.438-.3921-.957-.7036-1.557-.9343-.6-.2537-1.292-.3806-2.076-.3806-.6 0-1.189.0923-1.765.2768-.554.1846-1.073.4614-1.557.8305-.462.3461-.854.7844-1.177 1.315-.323.5075-.554 1.0842-.692 1.7302z"/><path d="m356.358 97.5601c-1.176 0-2.272-.2192-3.287-.6575-.992-.4383-1.869-1.0497-2.63-1.834-.738-.8074-1.326-1.7764-1.765-2.9067-.415-1.1304-.623-2.3877-.623-3.7719 0-1.3841.208-2.6414.623-3.7718.439-1.1304 1.027-2.0878 1.765-2.8721.761-.8075 1.638-1.4303 2.63-1.8687 1.015-.4383 2.111-.6574 3.287-.6574.9 0 1.696.1384 2.388.4152s1.269.5767 1.73.8997c.554.3922 1.027.819 1.419 1.2804h.173v-2.2493h3.633v17.648h-3.633v-2.4222h-.173c-.392.5075-.865.9689-1.419 1.3841-.461.3461-1.038.669-1.73.9689-.692.2769-1.488.4153-2.388.4153zm.693-3.2874c1.476 0 2.676-.496 3.598-1.488.946-1.015 1.419-2.4799 1.419-4.3947 0-1.9147-.473-3.3681-1.419-4.3601-.922-1.015-2.122-1.5226-3.598-1.5226-1.569 0-2.826.5076-3.772 1.5226-.946.992-1.419 2.4454-1.419 4.3601 0 1.9148.473 3.3797 1.419 4.3947.946.992 2.203 1.488 3.772 1.488zm-4.326-22.3196h9.689v2.9414h-9.689z"/><path d="m435.782 96.3715c-1.543 0-2.744-.3421-3.603-1.0264-.845-.6988-1.31-1.6889-1.398-2.9701h1.813c.204 1.6743 1.281 2.5115 3.232 2.5115.888 0 1.543-.1674 1.965-.5023.437-.3494.656-.8008.656-1.354 0-.5969-.212-1.0264-.634-1.2885s-1.194-.5096-2.315-.7425c-.466-.1019-.837-.182-1.113-.2402-.263-.0728-.583-.1675-.961-.2839-.379-.1311-.677-.2694-.896-.415-.204-.1601-.415-.3494-.633-.5678s-.379-.4877-.481-.808c-.087-.3203-.131-.677-.131-1.0701 0-.9609.35-1.718 1.049-2.2712.713-.5533 1.718-.8299 3.013-.8299 2.679 0 4.157 1.1793 4.434 3.5379h-1.813c-.087-.7426-.342-1.2812-.764-1.6161-.422-.3494-1.056-.5241-1.9-.5241-.772 0-1.347.1528-1.725.4586-.364.2912-.546.677-.546 1.1574 0 .5533.218.9464.655 1.1793.436.2184 1.23.4441 2.38.677.699.1456 1.245.2839 1.638.415.408.1164.83.3057 1.267.5678.436.2475.757.5823.961 1.0046.203.4222.305.9463.305 1.5723 0 1.1065-.407 1.9583-1.223 2.5552-.815.5823-1.892.8735-3.232.8735zm7.483 3.4069c-.669 0-1.201-.0801-1.594-.2403v-1.5723h.088c.291.1601.691.2402 1.201.2402.393 0 .72-.1019.982-.3058.262-.1892.495-.5459.699-1.0701l.437-1.1137-4.411-10.9631h1.921l2.665 7.0321.764 2.2057h.044c.262-.8444.509-1.5797.742-2.2057l2.577-7.0321h1.878l-4.826 12.2079c-.437 1.1065-.888 1.849-1.354 2.2275-.466.3931-1.07.5897-1.813.5897zm11.013-15.0251v1.485h.043c.874-1.1647 2.068-1.7471 3.582-1.7471 1.194 0 2.126.3131 2.795.9391.67.6261 1.005 1.5214 1.005 2.6862v7.9274h-1.769v-7.7745c0-.728-.226-1.2885-.677-1.6816-.451-.4077-1.077-.6115-1.878-.6115-.903 0-1.645.2912-2.228.8735-.582.5824-.873 1.3322-.873 2.2494v6.9447h-1.769v-11.2906zm14.595 11.5964c-1.645 0-2.97-.5678-3.975-1.7034-.99-1.1356-1.485-2.5479-1.485-4.2368 0-1.6888.495-3.1011 1.485-4.2367 1.005-1.1356 2.33-1.7034 3.975-1.7034 1.325 0 2.41.3567 3.254 1.0701.844.6988 1.369 1.6525 1.572 2.8609h-1.79c-.131-.7717-.459-1.3759-.983-1.8126-.524-.4368-1.209-.6552-2.053-.6552-1.165 0-2.067.4222-2.708 1.2667-.626.8444-.939 1.9145-.939 3.2102 0 1.2958.313 2.3659.939 3.2103.641.8299 1.543 1.2449 2.708 1.2449.903 0 1.623-.2403 2.162-.7207.539-.495.845-1.1866.917-2.0747h1.747c-.116 1.354-.597 2.4095-1.441 3.1666-.844.7425-1.973 1.1138-3.385 1.1138zm6.498-.3058v-11.2906h1.769v11.2906zm0-13.4308v-2.1839h1.769v2.1839zm5.949 2.1402v1.485h.044c.874-1.1647 2.067-1.7471 3.582-1.7471 1.193 0 2.125.3131 2.795.9391.67.6261 1.004 1.5214 1.004 2.6862v7.9274h-1.768v-7.7745c0-.728-.226-1.2885-.677-1.6816-.452-.4077-1.078-.6115-1.879-.6115-.902 0-1.645.2912-2.227.8735-.583.5824-.874 1.3322-.874 2.2494v6.9447h-1.769v-11.2906zm14.268 15.0469c-1.441 0-2.577-.2766-3.407-.8299-.815-.5387-1.274-1.303-1.376-2.293h1.638c.16 1.1501 1.194 1.7252 3.101 1.7252 2.155 0 3.232-.9682 3.232-2.9045v-1.5943h-.043c-.452.5824-.932 1.0192-1.442 1.3104-.509.2912-1.142.4367-1.9.4367-1.455 0-2.642-.5241-3.559-1.5723-.918-1.0483-1.376-2.3877-1.376-4.0184 0-1.7034.458-3.0574 1.376-4.062.932-1.0046 2.082-1.5069 3.45-1.5069 1.485 0 2.635.5679 3.451 1.7035h.043v-1.4414h1.769v10.6792c0 1.4413-.444 2.526-1.332 3.2539-.873.7426-2.082 1.1138-3.625 1.1138zm-.109-5.6344c2.286 0 3.428-1.3977 3.428-4.193 0-2.6644-1.15-3.9965-3.45-3.9965-1.034 0-1.827.3712-2.38 1.1138-.539.7425-.808 1.7398-.808 2.9919s.276 2.2494.829 2.9919c.554.7279 1.347 1.0919 2.381 1.0919z"/></g></g><g filter="url(#c)"><rect fill="#fff" height="73.6266" rx="36.8133" width="73.6266" x="420.007" y="220.88"/><path d="m456.82 240.959c9.242 0 16.733 7.491 16.733 16.733s-7.491 16.734-16.733 16.734-16.734-7.492-16.734-16.734 7.492-16.733 16.734-16.733zm0 3.347c-3.551 0-6.956 1.41-9.466 3.921-2.511 2.51-3.921 5.915-3.921 9.465 0 3.551 1.41 6.956 3.921 9.466 2.51 2.511 5.915 3.921 9.466 3.921 3.55 0 6.955-1.41 9.466-3.921 2.51-2.51 3.92-5.915 3.92-9.466 0-3.55-1.41-6.955-3.92-9.465-2.511-2.511-5.916-3.921-9.466-3.921zm0 3.346c.41 0 .805.151 1.111.423.307.273.502.648.55 1.055l.012.196v7.674l4.53 4.529c.3.301.474.705.487 1.13s-.136.839-.417 1.158c-.282.319-.674.519-1.097.559-.423.041-.846-.082-1.182-.342l-.157-.139-5.02-5.02c-.26-.26-.427-.599-.476-.963l-.015-.22v-8.366c0-.444.177-.87.491-1.184.313-.313.739-.49 1.183-.49z" fill="#000"/></g><path d="m462.677 115.46v105.42" stroke="#000" stroke-dasharray="10.04 10.04" stroke-width="1.67333"/></svg>