<svg fill="none" height="339" viewBox="0 0 473 339" width="473" xmlns="http://www.w3.org/2000/svg" xmlns:xlink="http://www.w3.org/1999/xlink"><filter id="a" color-interpolation-filters="sRGB" filterUnits="userSpaceOnUse" height="338.882" width="472.432" x="-.000077" y="-.000077"><feFlood flood-opacity="0" result="BackgroundImageFix"/><feColorMatrix in="SourceAlpha" result="hardAlpha" type="matrix" values="0 0 0 0 0 0 0 0 0 0 0 0 0 0 0 0 0 0 127 0"/><feMorphology in="SourceAlpha" operator="dilate" radius="1.66937" result="effect1_dropShadow_6585_1643"/><feOffset/><feGaussianBlur stdDeviation="10.8509"/><feColorMatrix type="matrix" values="0 0 0 0 0.75 0 0 0 0 0.75 0 0 0 0 0.75 0 0 0 0.35 0"/><feBlend in2="BackgroundImageFix" mode="normal" result="effect1_dropShadow_6585_1643"/><feBlend in="SourceGraphic" in2="effect1_dropShadow_6585_1643" mode="normal" result="shape"/></filter><clipPath id="b"><rect height="292.14" rx="10.0162" width="425.689" x="23.3711" y="23.3711"/></clipPath><clipPath id="c"><path d="m23.3711 23.3711h425.541v22.9657h-425.541z"/></clipPath><clipPath id="d"><path d="m30.4775 32.2944h28.4244v6.55948h-28.4244z"/></clipPath><g filter="url(#a)"><g clip-path="url(#b)"><path d="m23.3711 41.7344h425.689v273.777h-425.689z" fill="#fff"/><g clip-path="url(#c)"><path d="m23.3711 27.7441c0-2.4152 1.9578-4.373 4.373-4.373h416.7949c2.415 0 4.373 1.9578 4.373 4.373v18.5927h-425.5409z" fill="#b4b4b4"/><g clip-path="url(#d)" fill="#fff" stroke="#fff" stroke-width=".273312"><path d="m55.6221 32.4312c1.7357 0 3.1433 1.4069 3.1435 3.1425 0 1.7359-1.4077 3.1436-3.1435 3.1436-1.7357-.0003-3.1426-1.4078-3.1426-3.1436.0002-1.7355 1.407-3.1423 3.1426-3.1425z"/><path d="m44.6892 32.4312c1.7357 0 3.1433 1.4069 3.1436 3.1425 0 1.7359-1.4077 3.1436-3.1436 3.1436-1.7357-.0003-3.1426-1.4078-3.1426-3.1436.0003-1.7355 1.4071-3.1423 3.1426-3.1425z"/><path d="m33.7568 32.4312c1.7358 0 3.1434 1.4069 3.1436 3.1425 0 1.7359-1.4077 3.1436-3.1436 3.1436-1.7356-.0003-3.1425-1.4078-3.1425-3.1436.0002-1.7355 1.407-3.1423 3.1425-3.1425z"/></g></g><rect fill="#f6f6f6" height="47.2518" rx="23.6259" width="106.671" x="50.0811" y="241.651"/><path d="m76.0576 271.776v-15.225h10.9024v2.619h-7.8148v3.663h6.6224v2.64h-6.6224v6.303zm20.7365-1.32c-1.0647 1.093-2.4346 1.64-4.1097 1.64s-3.045-.547-4.1097-1.64c-1.0647-1.107-1.597-2.484-1.597-4.131s.5323-3.016 1.597-4.11c1.0647-1.107 2.4346-1.66 4.1097-1.66s3.045.553 4.1097 1.66c1.0646 1.094 1.597 2.463 1.597 4.11s-.5324 3.024-1.597 4.131zm-4.1097-.575c.8659 0 1.5402-.319 2.0229-.958.4968-.653.7453-1.519.7453-2.598s-.2485-1.945-.7453-2.598c-.4827-.653-1.157-.979-2.0229-.979-.8802 0-1.5616.326-2.0442.979-.4827.639-.724 1.505-.724 2.598 0 1.079.2413 1.945.724 2.598.4826.639 1.164.958 2.0442.958zm12.1206 2.215c-1.689 0-3.045-.547-4.067-1.64s-1.5331-2.47-1.5331-4.131.4969-3.038 1.4901-4.131c1.008-1.093 2.329-1.639 3.961-1.639 1.377 0 2.499.362 3.365 1.086.865.724 1.398 1.696 1.597 2.917h-2.833c-.099-.497-.326-.902-.681-1.214s-.795-.468-1.32-.468c-.852 0-1.505.305-1.959.915-.454.611-.682 1.455-.682 2.534 0 1.065.22 1.91.661 2.534.44.611 1.086.916 1.937.916 1.264 0 1.995-.618 2.194-1.853h2.789c-.099 1.207-.589 2.208-1.469 3.003-.88.78-2.03 1.171-3.45 1.171zm15.871-.32h-2.79v-1.277h-.064c-.397.539-.837.937-1.32 1.192-.468.256-1.072.383-1.81.383-1.192 0-2.122-.354-2.789-1.064s-1.001-1.668-1.001-2.875v-7.282h2.875v6.792c0 1.321.603 1.981 1.81 1.981.667 0 1.199-.227 1.597-.682.397-.454.596-1.05.596-1.788v-6.303h2.896zm6.302.32c-1.561 0-2.782-.341-3.662-1.022-.881-.696-1.363-1.64-1.448-2.832h2.683c.184 1.206.979 1.81 2.385 1.81.638 0 1.128-.114 1.469-.341.355-.227.532-.532.532-.916 0-.142-.028-.269-.085-.383-.043-.114-.128-.213-.256-.298-.113-.1-.22-.178-.319-.234-.085-.057-.241-.114-.468-.171-.228-.057-.405-.099-.533-.127-.113-.029-.319-.064-.617-.107-.284-.057-.483-.099-.597-.128-.596-.113-1.086-.227-1.469-.34-.369-.128-.759-.306-1.171-.533-.412-.241-.724-.561-.937-.958-.199-.412-.298-.901-.298-1.469 0-1.136.412-2.002 1.235-2.598.838-.596 1.909-.894 3.215-.894 1.406 0 2.506.326 3.301.979.809.639 1.27 1.519 1.384 2.641h-2.619c-.114-1.065-.816-1.598-2.108-1.598-.582 0-1.044.107-1.384.32-.327.213-.49.511-.49.894 0 .128.021.249.064.362.057.1.142.192.255.277.128.071.249.135.362.192.114.042.277.092.49.149.213.042.398.085.554.127.156.029.369.071.639.128.269.043.482.078.638.107.455.099.824.191 1.108.277.298.071.638.198 1.022.383.383.17.681.369.894.596.227.213.419.511.575.894.17.369.256.802.256 1.299 0 1.079-.426 1.938-1.278 2.577-.838.624-1.945.937-3.322.937z" fill="#1d1d1f"/><rect fill="#f6f6f6" height="47.2518" rx="23.6259" width="97.6714" x="171.777" y="241.651"/><path d="m204.306 272.096c-2.144 0-3.904-.738-5.281-2.215-1.363-1.49-2.044-3.378-2.044-5.664 0-2.3.667-4.202 2.002-5.707 1.334-1.504 3.101-2.257 5.302-2.257 1.817 0 3.272.483 4.365 1.448 1.107.951 1.746 2.179 1.916 3.684h-3.066c-.142-.781-.497-1.398-1.065-1.853-.553-.454-1.27-.681-2.15-.681-1.349 0-2.378.497-3.088 1.491-.71.993-1.065 2.285-1.065 3.875 0 1.576.377 2.861 1.129 3.854.767.994 1.782 1.491 3.045 1.491.894 0 1.64-.242 2.236-.724.596-.497.944-1.15 1.043-1.959h3.024c-.085 1.434-.646 2.633-1.682 3.598-1.15 1.079-2.69 1.619-4.621 1.619zm14.535-.32c-.142-.184-.256-.589-.341-1.213h-.042c-.313.468-.71.83-1.193 1.086-.482.255-1.157.383-2.023.383-1.149 0-2.072-.291-2.768-.873-.695-.582-1.043-1.406-1.043-2.47 0-1.107.383-1.917 1.15-2.428.766-.525 1.845-.887 3.236-1.086 1.022-.142 1.718-.284 2.087-.426.369-.156.554-.425.554-.809 0-.397-.156-.71-.469-.937-.312-.241-.766-.362-1.363-.362-1.32 0-2.022.511-2.108 1.534h-2.576c.042-1.037.461-1.896 1.256-2.577s1.945-1.022 3.45-1.022c3.066 0 4.599 1.341 4.599 4.024v5.558c0 .823.128 1.327.383 1.512v.106zm-2.896-1.767c.795 0 1.42-.206 1.874-.618.468-.411.703-.901.703-1.469v-1.639c-.313.184-.987.397-2.023.638-.824.185-1.406.398-1.746.639-.341.227-.511.582-.511 1.065 0 .923.567 1.384 1.703 1.384zm7.186 1.767v-15.225h2.896v15.225zm4.802 0v-10.923h2.79v1.469h.064c.695-1.178 1.753-1.767 3.173-1.767.681 0 1.284.177 1.81.532.539.341.944.802 1.213 1.384h.043c.795-1.278 1.888-1.916 3.279-1.916 1.136 0 2.016.347 2.641 1.043.638.681.958 1.625.958 2.832v7.346h-2.896v-6.856c0-1.249-.561-1.874-1.682-1.874-.611 0-1.093.22-1.448.66-.341.426-.511 1.001-.511 1.725v6.345h-2.896v-6.856c0-1.249-.561-1.874-1.683-1.874-.582 0-1.057.22-1.426.66-.355.426-.533 1.001-.533 1.725v6.345z" fill="#1d1d1f"/><rect fill="#f6f6f6" height="47.2518" rx="23.6259" width="115.671" x="284.472" y="241.651"/><path d="m310.426 271.776v-15.225h11.201v2.598h-8.113v3.407h7.112v2.534h-7.112v4.11h8.177v2.576zm15.782-10.923v1.49h.064c.752-1.192 1.831-1.788 3.236-1.788 1.122 0 2.03.383 2.726 1.149.696.753 1.043 1.732 1.043 2.939v7.133h-2.896v-6.707c0-.596-.17-1.079-.511-1.448-.326-.369-.788-.554-1.384-.554-.639 0-1.171.234-1.597.703-.411.468-.617 1.072-.617 1.81v6.196h-2.896v-10.923zm13.986 11.243c-1.76 0-3.144-.54-4.152-1.619-1.008-1.093-1.512-2.484-1.512-4.173 0-1.633.504-2.995 1.512-4.089 1.008-1.107 2.3-1.66 3.875-1.66 1.718 0 3.045.596 3.982 1.788.937 1.193 1.406 2.79 1.406 4.791h-7.922c.114.866.405 1.541.873 2.023.469.469 1.108.703 1.917.703 1.065 0 1.767-.447 2.108-1.342h2.853c-.213 1.023-.752 1.874-1.618 2.556-.866.681-1.973 1.022-3.322 1.022zm-.234-9.306c-1.405 0-2.25.781-2.534 2.343h4.855c-.043-.696-.277-1.257-.703-1.682-.426-.441-.965-.661-1.618-.661zm9.474-1.937v1.746h.064c.341-.639.717-1.108 1.129-1.406.412-.312.93-.468 1.554-.468.298 0 .526.028.682.085v2.534h-.064c-.98-.099-1.768.114-2.364.639s-.894 1.348-.894 2.47v5.323h-2.896v-10.923zm9.177 14.65c-1.477 0-2.662-.298-3.556-.895-.88-.596-1.399-1.433-1.555-2.512h2.875c.284.809 1.015 1.214 2.193 1.214 1.618 0 2.428-.76 2.428-2.279v-1.192h-.064c-.753.851-1.704 1.277-2.854 1.277-1.291 0-2.42-.475-3.385-1.426-.951-.952-1.427-2.215-1.427-3.791 0-1.618.44-2.91 1.32-3.875.88-.98 2.016-1.469 3.407-1.469 1.32 0 2.328.482 3.024 1.448h.042v-1.15h2.79v10.093c0 1.419-.433 2.527-1.299 3.322-.88.823-2.193 1.235-3.939 1.235zm-.043-6.708c.866 0 1.512-.277 1.938-.83.426-.554.639-1.264.639-2.13 0-.851-.227-1.554-.682-2.108-.44-.567-1.079-.851-1.916-.851-.738 0-1.335.269-1.789.809-.44.539-.66 1.263-.66 2.172 0 .922.22 1.646.66 2.172.454.511 1.058.766 1.81.766zm7.38 6.559v-2.279h1.022c1.079 0 1.618-.497 1.618-1.49 0-.483-.276-1.47-.83-2.96l-2.939-7.772h3.045l1.619 4.919.702 2.384h.043c.199-.922.412-1.717.639-2.384l1.533-4.919h2.917l-3.811 11.2c-.426 1.249-.909 2.108-1.448 2.577-.526.482-1.328.724-2.407.724z" fill="#1d1d1f"/><rect fill="#1d1d1f" height="50.0811" rx="10.0162" width="50.0811" x="50.0811" y="68.4438"/><rect height="18.3631" rx="9.18153" stroke="#fff" stroke-width="1.66937" width="18.3631" x="65.9402" y="84.3029"/><circle cx="75.1216" cy="93.4847" fill="#fff" r="5.00811"/><path d="m109.707 88.105v-15.5777h11.155v2.6798h-7.996v3.7473h6.776v2.7016h-6.776v6.449zm21.217-1.3508c-1.089 1.1184-2.491 1.6776-4.205 1.6776s-3.115-.5592-4.205-1.6776c-1.089-1.1329-1.634-2.5418-1.634-4.2267s.545-3.0865 1.634-4.2049c1.09-1.1329 2.491-1.6994 4.205-1.6994s3.116.5665 4.205 1.6994c1.089 1.1184 1.634 2.52 1.634 4.2049s-.545 3.0938-1.634 4.2267zm-4.205-.5883c.886 0 1.576-.3268 2.07-.9804.508-.6681.763-1.5541.763-2.658s-.255-1.9899-.763-2.658c-.494-.6682-1.184-1.0022-2.07-1.0022-.9 0-1.597.334-2.091 1.0022-.494.6536-.741 1.5396-.741 2.658 0 1.1039.247 1.9899.741 2.658.494.6536 1.191.9804 2.091.9804zm12.402 2.2659c-1.729 0-3.116-.5592-4.161-1.6776-1.046-1.1184-1.569-2.5273-1.569-4.2267s.508-3.1083 1.525-4.2267c1.031-1.1184 2.382-1.6776 4.052-1.6776 1.409 0 2.557.3704 3.443 1.1112.886.7407 1.43 1.7357 1.634 2.9848h-2.898c-.102-.5084-.334-.9223-.697-1.2419-.363-.3195-.814-.4793-1.351-.4793-.871 0-1.54.3123-2.004.9368-.465.6246-.698 1.4888-.698 2.5927 0 1.0894.226 1.9536.676 2.5927.45.6245 1.111.9368 1.982.9368 1.293 0 2.041-.6318 2.245-1.8955h2.854c-.102 1.2346-.603 2.2586-1.504 3.072-.9.7989-2.077 1.1983-3.529 1.1983zm16.238-.3268h-2.854v-1.3072h-.065c-.407.5519-.857.9586-1.351 1.22-.479.2615-1.097.3922-1.852.3922-1.22 0-2.171-.3631-2.854-1.0894-.683-.7262-1.024-1.7066-1.024-2.9412v-7.4512h2.941v6.9501c0 1.3508.617 2.0262 1.852 2.0262.683 0 1.227-.2324 1.634-.6972s.61-1.0748.61-1.8301v-6.449h2.963zm6.448.3268c-1.597 0-2.846-.3486-3.747-1.0458-.9-.7117-1.394-1.6776-1.481-2.8977h2.745c.189 1.2346 1.002 1.8519 2.44 1.8519.653 0 1.155-.1162 1.503-.3486.363-.2324.545-.5446.545-.9368 0-.1452-.029-.276-.087-.3922-.044-.1162-.131-.2178-.262-.305-.116-.1017-.225-.1815-.327-.2396-.087-.0581-.246-.1162-.479-.1743-.232-.0581-.414-.1017-.545-.1308-.116-.029-.326-.0653-.631-.1089-.291-.0581-.494-.1017-.61-.1307-.61-.1162-1.112-.2324-1.504-.3486-.377-.1307-.777-.3123-1.198-.5447-.421-.2469-.741-.5737-.959-.9804-.203-.4212-.305-.9223-.305-1.5033 0-1.162.422-2.048 1.264-2.658.857-.6101 1.954-.9151 3.29-.9151 1.438 0 2.563.3341 3.377 1.0022.828.6536 1.3 1.5542 1.416 2.7016h-2.68c-.116-1.0893-.835-1.634-2.157-1.634-.595 0-1.067.1089-1.416.3268-.334.2179-.501.5229-.501.915 0 .1308.022.2542.065.3704.058.1017.146.1961.262.2833.131.0726.254.1379.37.196.116.0436.283.0945.501.1525.218.0436.407.0872.567.1308.16.029.377.0726.653.1307.276.0436.494.0799.654.1089.465.1017.842.1961 1.133.2833.305.0726.653.2033 1.046.3921.392.1743.697.3777.915.6101.232.2178.428.5229.588.915.174.3777.261.8207.261 1.329 0 1.1039-.435 1.9826-1.307 2.6363-.857.639-1.99.9586-3.399.9586zm15.934 0c-1.511 0-2.622-.5737-3.334-1.7212h-.043v1.3944h-2.854v-15.5777h2.963v5.7517h.065c.712-1.1038 1.75-1.6558 3.116-1.6558 1.408 0 2.563.552 3.464 1.6558.9 1.0894 1.35 2.5055 1.35 4.2485 0 1.8011-.435 3.239-1.307 4.3138-.871 1.0603-2.011 1.5905-3.42 1.5905zm-.654-2.4837c.755 0 1.336-.2978 1.743-.8933.421-.5955.632-1.4379.632-2.5273 0-1.0748-.218-1.9245-.654-2.5491-.421-.6391-1.031-.9586-1.83-.9586-1.714 0-2.571 1.191-2.571 3.5731 0 1.0312.24 1.8519.719 2.4619.48.5955 1.133.8933 1.961.8933zm9.617-9.0199v1.7866h.065c.349-.6536.734-1.133 1.155-1.438.421-.3195.951-.4793 1.591-.4793.305 0 .537.0291.697.0872v2.5926h-.066c-1.002-.1017-1.808.1162-2.418.6536s-.915 1.3799-.915 2.5273v5.4468h-2.963v-11.1768zm9.716 11.5036c-1.801 0-3.218-.552-4.249-1.6558-1.031-1.1184-1.547-2.5418-1.547-4.2703 0-1.6703.516-3.0647 1.547-4.1831 1.031-1.1329 2.353-1.6994 3.965-1.6994 1.758 0 3.116.6101 4.075 1.8301.958 1.2201 1.438 2.8541 1.438 4.9021h-8.105c.116.886.414 1.5759.893 2.0698.479.4793 1.133.7189 1.961.7189 1.089 0 1.808-.4575 2.157-1.3725h2.919c-.218 1.0457-.77 1.9172-1.656 2.6144s-2.018 1.0458-3.398 1.0458zm-.24-9.5209c-1.438 0-2.302.7988-2.593 2.3965h4.968c-.044-.7117-.283-1.2854-.719-1.7211-.436-.4503-.988-.6754-1.656-.6754zm13.877 9.1941c-.145-.1888-.261-.6028-.348-1.2419h-.044c-.32.4793-.726.8497-1.22 1.1112-.494.2614-1.184.3921-2.07.3921-1.176 0-2.12-.2977-2.832-.8932-.712-.5956-1.068-1.438-1.068-2.5273 0-1.133.392-1.9609 1.177-2.4838.784-.5374 1.888-.9078 3.311-1.1111 1.046-.1452 1.758-.2905 2.136-.4357.377-.1598.566-.4358.566-.8279 0-.4067-.16-.7263-.479-.9587-.32-.2469-.785-.3704-1.395-.3704-1.35 0-2.069.5229-2.157 1.5687h-2.636c.044-1.0603.472-1.939 1.286-2.6362.813-.6972 1.989-1.0458 3.529-1.0458 3.137 0 4.706 1.3726 4.706 4.1178v5.6864c0 .8424.131 1.358.392 1.5468v.109zm-2.963-1.8083c.814 0 1.453-.2107 1.917-.6319.48-.4212.719-.9223.719-1.5033v-1.6776c-.319.1888-1.009.4067-2.069.6536-.843.1889-1.438.4067-1.787.6536-.349.2324-.523.5956-.523 1.0894 0 .9441.581 1.4162 1.743 1.4162zm6.442-7.4076v-1.9609h1.547v-3.4859h2.898v3.4859h1.917v1.9609h-1.917v5.926c0 .7408.37 1.1112 1.111 1.1112l.872-.0218v2.1787c-.451.029-1.068.0436-1.852.0436-.857 0-1.576-.2034-2.157-.6101-.581-.4212-.872-1.1111-.872-2.0697v-6.5579zm10.851-6.3618v5.8607h.065c.422-.6101.879-1.0531 1.373-1.329.508-.2905 1.133-.4358 1.874-.4358 1.147 0 2.077.3922 2.788 1.1765.712.7698 1.068 1.772 1.068 3.0066v7.2987h-2.963v-6.8629c0-.6101-.174-1.1039-.523-1.4815-.334-.3777-.806-.5665-1.416-.5665-.654 0-1.198.2396-1.634.719-.421.4793-.632 1.0966-.632 1.8519v6.34h-2.963v-15.5777zm15.508 4.4009v1.7866h.065c.349-.6536.734-1.133 1.155-1.438.421-.3195.951-.4793 1.591-.4793.305 0 .537.0291.697.0872v2.5926h-.066c-1.002-.1017-1.808.1162-2.418.6536s-.915 1.3799-.915 2.5273v5.4468h-2.963v-11.1768zm9.716 11.5036c-1.801 0-3.218-.552-4.249-1.6558-1.031-1.1184-1.547-2.5418-1.547-4.2703 0-1.6703.516-3.0647 1.547-4.1831 1.031-1.1329 2.353-1.6994 3.965-1.6994 1.758 0 3.116.6101 4.075 1.8301.958 1.2201 1.438 2.8541 1.438 4.9021h-8.105c.116.886.414 1.5759.893 2.0698.479.4793 1.133.7189 1.961.7189 1.089 0 1.808-.4575 2.157-1.3725h2.919c-.218 1.0457-.77 1.9172-1.656 2.6144s-2.019 1.0458-3.398 1.0458zm-.24-9.5209c-1.438 0-2.302.7988-2.593 2.3965h4.968c-.044-.7117-.283-1.2854-.719-1.7211-.436-.4503-.988-.6754-1.656-.6754zm13.877 9.1941c-.145-.1888-.261-.6028-.348-1.2419h-.044c-.32.4793-.726.8497-1.22 1.1112-.494.2614-1.184.3921-2.07.3921-1.176 0-2.12-.2977-2.832-.8932-.712-.5956-1.068-1.438-1.068-2.5273 0-1.133.392-1.9609 1.177-2.4838.784-.5374 1.888-.9078 3.311-1.1111 1.046-.1452 1.758-.2905 2.135-.4357.378-.1598.567-.4358.567-.8279 0-.4067-.16-.7263-.479-.9587-.32-.2469-.785-.3704-1.395-.3704-1.351 0-2.069.5229-2.157 1.5687h-2.636c.044-1.0603.472-1.939 1.286-2.6362.813-.6972 1.989-1.0458 3.529-1.0458 3.137 0 4.706 1.3726 4.706 4.1178v5.6864c0 .8424.131 1.358.392 1.5468v.109zm-2.963-1.8083c.813 0 1.453-.2107 1.917-.6319.48-.4212.719-.9223.719-1.5033v-1.6776c-.319.1888-1.009.4067-2.069.6536-.843.1889-1.438.4067-1.787.6536-.349.2324-.523.5956-.523 1.0894 0 .9441.581 1.4162 1.743 1.4162zm11.492 2.1351c-1.409 0-2.549-.5302-3.421-1.5905-.871-1.0748-1.307-2.5127-1.307-4.3138 0-1.743.443-3.1591 1.329-4.2485.901-1.1038 2.048-1.6558 3.442-1.6558 1.395 0 2.448.552 3.16 1.6558h.065v-5.7517h2.963v15.5777h-2.854v-1.4598h-.044c-.726 1.1911-1.837 1.7866-3.333 1.7866zm.654-2.4837c.871 0 1.532-.2978 1.982-.8933.465-.5955.697-1.4162.697-2.4619 0-2.3821-.864-3.5731-2.592-3.5731-.799 0-1.409.3195-1.83.9586-.422.6391-.632 1.4888-.632 2.5491 0 1.0894.203 1.9318.61 2.5273.421.5955 1.009.8933 1.765.8933zm7.743 5.8171v-2.3312h1.046c1.103 0 1.655-.5084 1.655-1.5251 0-.4938-.283-1.5033-.849-3.0284l-3.007-7.9523h3.116l1.655 5.0328.719 2.4402h.044c.203-.9441.421-1.7575.654-2.4402l1.568-5.0328h2.985l-3.9 11.46c-.436 1.2782-.929 2.1569-1.481 2.6362-.538.4939-1.358.7408-2.462.7408z" fill="#1d1d1f"/><path d="m109.817 114.815c.014-.537.08-1.046.196-1.525s.247-.886.392-1.22c.145-.349.378-.705.697-1.068.32-.377.574-.661.763-.849.189-.204.508-.465.958-.785.465-.319.785-.53.959-.632.189-.116.537-.326 1.046-.631 1.263-.756 2.077-1.315 2.44-1.678.654-.654.98-1.474.98-2.462s-.29-1.765-.871-2.331c-.581-.567-1.365-.85-2.353-.85-1.06 0-1.888.32-2.484.959-.61.668-.922 1.648-.937 2.941h-1.438c0-1.612.443-2.861 1.329-3.747.901-.901 2.106-1.3512 3.617-1.3512 1.38 0 2.484.414 3.312 1.2422.842.813 1.263 1.844 1.263 3.093 0 .669-.094 1.257-.283 1.765-.174.509-.494.981-.959 1.416-.45.422-.835.741-1.154.959-.305.218-.806.53-1.504.937-.072.043-.123.08-.152.109-.029.014-.073.036-.131.065s-.109.058-.152.087c-.567.334-1.01.61-1.329.828-.32.218-.697.509-1.133.872-.421.363-.755.755-1.002 1.176-.233.421-.385.879-.458 1.373h8.061v1.307zm15.031 0v-11.264h1.351v1.699h.044c.813-1.292 1.953-1.939 3.42-1.939.712 0 1.336.182 1.874.545.537.349.915.85 1.133 1.503h.043c.785-1.365 1.99-2.048 3.617-2.048.988 0 1.801.313 2.44.937.639.61.959 1.467.959 2.571v7.996h-1.329v-7.887c0-.813-.218-1.423-.654-1.83-.436-.421-1.009-.632-1.721-.632-.857 0-1.583.291-2.179.872-.581.566-.871 1.336-.871 2.309v7.168h-1.351v-7.887c0-.813-.211-1.423-.632-1.83-.407-.421-.951-.632-1.634-.632-.828 0-1.561.312-2.2.937-.64.61-.959 1.358-.959 2.244v7.168zm17.129 0v-11.264h1.35v11.264zm0-13.661v-1.9168h1.35v1.9168zm3.637 13.661v-11.264h1.351v1.721h.043c.886-1.307 2.143-1.961 3.769-1.961 1.075 0 1.939.313 2.593.937.668.61 1.002 1.467 1.002 2.571v7.996h-1.35v-7.865c0-1.656-.857-2.484-2.571-2.484-.974 0-1.801.305-2.484.915-.668.61-1.002 1.373-1.002 2.288v7.146zm19.332.305c-1.612 0-2.854-.668-3.725-2.004h-.044v1.699h-1.35v-15.5778h1.35v6.2528h.044c.871-1.452 2.142-2.179 3.813-2.179 1.379 0 2.498.531 3.355 1.591.857 1.046 1.285 2.484 1.285 4.314 0 1.757-.428 3.181-1.285 4.27-.843 1.089-1.99 1.634-3.443 1.634zm-.065-1.133c1.104 0 1.946-.443 2.527-1.329.596-.886.894-2.026.894-3.421 0-1.437-.305-2.592-.915-3.464-.596-.886-1.438-1.329-2.528-1.329-1.205 0-2.142.451-2.81 1.351-.654.901-.981 2.048-.981 3.442 0 1.438.327 2.593.981 3.465.668.857 1.612 1.285 2.832 1.285zm11.161 1.111c-1.641 0-2.927-.545-3.856-1.634-.93-1.104-1.395-2.527-1.395-4.27 0-1.714.472-3.123 1.417-4.227.944-1.118 2.185-1.677 3.725-1.677.872 0 1.627.167 2.266.501.654.334 1.162.799 1.525 1.394.363.596.625 1.249.784 1.961.175.697.262 1.46.262 2.288h-8.584c.029 1.336.37 2.425 1.024 3.268.653.828 1.597 1.241 2.832 1.241 1.714 0 2.811-.842 3.29-2.527h1.307c-.247 1.133-.77 2.034-1.569 2.702-.784.653-1.793.98-3.028.98zm-3.834-6.732h7.146c-.029-1.177-.334-2.128-.915-2.854-.567-.741-1.402-1.111-2.506-1.111-1.089 0-1.953.363-2.593 1.089-.624.726-1.002 1.685-1.132 2.876zm10.872 6.449v-10.153h-1.634v-1.111h1.634v-2.004c0-1.6126.879-2.4187 2.637-2.4187.058 0 .188.0072.392.0218h.37v1.1549h-.588c-.552 0-.937.109-1.155.327-.218.203-.327.522-.327.958v1.961h2.092v1.111h-2.092v10.153zm9.089-.85c1.206 0 2.142-.45 2.811-1.351.668-.9 1.002-2.04 1.002-3.42s-.334-2.52-1.002-3.421c-.669-.9-1.605-1.35-2.811-1.35-1.22 0-2.164.45-2.832 1.35-.668.901-1.002 2.041-1.002 3.421s.334 2.52 1.002 3.42c.668.901 1.612 1.351 2.832 1.351zm0 1.133c-1.598 0-2.869-.552-3.813-1.656-.944-1.118-1.416-2.534-1.416-4.248s.472-3.123 1.416-4.227c.944-1.118 2.215-1.677 3.813-1.677 1.583 0 2.84.559 3.769 1.677.944 1.104 1.416 2.513 1.416 4.227s-.472 3.13-1.416 4.248c-.929 1.104-2.186 1.656-3.769 1.656zm6.891-.283v-11.264h1.351v2.092h.044c.769-1.453 1.917-2.179 3.442-2.179.131 0 .254.014.37.043v1.329c-.886-.145-1.685.037-2.396.545-.973.726-1.46 1.736-1.46 3.029v6.405zm10.812.283c-1.642 0-2.927-.545-3.857-1.634-.929-1.104-1.394-2.527-1.394-4.27 0-1.714.472-3.123 1.416-4.227.944-1.118 2.186-1.677 3.726-1.677.871 0 1.626.167 2.265.501.654.334 1.162.799 1.526 1.394.363.596.624 1.249.784 1.961.174.697.261 1.46.261 2.288h-8.584c.029 1.336.371 2.425 1.024 3.268.654.828 1.598 1.241 2.833 1.241 1.713 0 2.81-.842 3.289-2.527h1.308c-.247 1.133-.77 2.034-1.569 2.702-.784.653-1.794.98-3.028.98zm-3.835-6.732h7.146c-.029-1.177-.334-2.128-.915-2.854-.566-.741-1.402-1.111-2.505-1.111-1.09 0-1.954.363-2.593 1.089-.625.726-1.002 1.685-1.133 2.876zm14.689 10.175c-.392 0-.777-.059-1.155-.175v-1.198h.066c.305.102.646.152 1.024.152.886 0 1.51-.508 1.873-1.525l.371-1.002-4.336-11.242h1.438l2.701 7.277.894 2.571h.043c.32-1.017.603-1.874.85-2.571l2.593-7.277h1.394l-4.641 12.44c-.363.974-.784 1.642-1.263 2.005-.465.363-1.082.545-1.852.545zm13.358-4.576c1.205 0 2.142-.45 2.81-1.351.668-.9 1.002-2.04 1.002-3.42s-.334-2.52-1.002-3.421c-.668-.9-1.605-1.35-2.81-1.35-1.221 0-2.165.45-2.833 1.35-.668.901-1.002 2.041-1.002 3.421s.334 2.52 1.002 3.42c.668.901 1.612 1.351 2.833 1.351zm0 1.133c-1.598 0-2.869-.552-3.813-1.656-.944-1.118-1.416-2.534-1.416-4.248s.472-3.123 1.416-4.227c.944-1.118 2.215-1.677 3.813-1.677 1.583 0 2.839.559 3.769 1.677.944 1.104 1.416 2.513 1.416 4.227s-.472 3.13-1.416 4.248c-.93 1.104-2.186 1.656-3.769 1.656zm10.507-.022c-1.104 0-1.997-.312-2.679-.936-.683-.64-1.024-1.518-1.024-2.637v-7.952h1.35v7.865c0 .828.233 1.46.698 1.896.464.421 1.118.631 1.96.631.959 0 1.743-.319 2.353-.958s.915-1.438.915-2.397v-7.037h1.329v11.264h-1.329v-1.656h-.043c-.45.61-.944 1.082-1.482 1.416-.537.334-1.22.501-2.048.501zm7.171-.261v-11.264h1.351v2.092h.043c.77-1.453 1.917-2.179 3.443-2.179.13 0 .254.014.37.043v1.329c-.886-.145-1.685.037-2.397.545-.973.726-1.459 1.736-1.459 3.029v6.405zm9.978 3.617v-14.881h1.351v1.939h.044c.857-1.452 2.128-2.179 3.813-2.179 1.379 0 2.498.523 3.355 1.569.871 1.046 1.307 2.484 1.307 4.314 0 1.757-.429 3.181-1.285 4.27-.843 1.089-1.998 1.634-3.465 1.634-1.612 0-2.854-.639-3.725-1.917h-.044v5.251zm5.055-4.467c1.104 0 1.954-.443 2.549-1.329.596-.9.893-2.04.893-3.42 0-1.438-.305-2.593-.915-3.464-.595-.872-1.445-1.308-2.549-1.308-1.205 0-2.142.451-2.81 1.351-.654.901-.981 2.048-.981 3.442 0 1.438.32 2.586.959 3.443.654.857 1.605 1.285 2.854 1.285zm6.499.85v-11.264h1.35v2.092h.044c.77-1.453 1.917-2.179 3.442-2.179.131 0 .254.014.371.043v1.329c-.886-.145-1.685.037-2.397.545-.973.726-1.46 1.736-1.46 3.029v6.405zm10.811.283c-1.641 0-2.927-.545-3.856-1.634-.93-1.104-1.395-2.527-1.395-4.27 0-1.714.472-3.123 1.416-4.227.944-1.118 2.186-1.677 3.726-1.677.871 0 1.627.167 2.266.501.653.334 1.162.799 1.525 1.394.363.596.624 1.249.784 1.961.174.697.262 1.46.262 2.288h-8.584c.029 1.336.37 2.425 1.024 3.268.653.828 1.597 1.241 2.832 1.241 1.714 0 2.81-.842 3.29-2.527h1.307c-.247 1.133-.77 2.034-1.569 2.702-.784.653-1.794.98-3.028.98zm-3.835-6.732h7.146c-.029-1.177-.334-2.128-.915-2.854-.566-.741-1.401-1.111-2.505-1.111-1.089 0-1.954.363-2.593 1.089-.624.726-1.002 1.685-1.133 2.876zm14.18 6.754c-1.453 0-2.579-.349-3.377-1.046-.785-.697-1.213-1.619-1.286-2.767h1.373c.189 1.772 1.292 2.658 3.311 2.658.915 0 1.62-.196 2.114-.588s.74-.922.74-1.59c0-.61-.21-1.061-.631-1.351-.407-.291-1.199-.567-2.375-.828-.683-.16-1.227-.305-1.634-.436s-.828-.312-1.264-.545c-.421-.246-.733-.552-.937-.915-.188-.377-.283-.828-.283-1.35 0-.93.363-1.671 1.089-2.223.727-.552 1.671-.828 2.833-.828 2.498 0 3.892 1.112 4.183 3.334h-1.351c-.16-1.482-1.104-2.222-2.832-2.222-.843 0-1.482.174-1.917.522-.436.349-.654.799-.654 1.351 0 .596.232 1.024.697 1.286.465.247 1.307.515 2.527.806 1.337.276 2.317.646 2.942 1.111.639.45.958 1.205.958 2.266 0 1.016-.385 1.83-1.154 2.44-.756.61-1.78.915-3.072.915zm10.655-.022c-1.642 0-2.927-.545-3.857-1.634-.929-1.104-1.394-2.527-1.394-4.27 0-1.714.472-3.123 1.416-4.227.944-1.118 2.186-1.677 3.726-1.677.871 0 1.626.167 2.266.501.653.334 1.162.799 1.525 1.394.363.596.624 1.249.784 1.961.174.697.261 1.46.261 2.288h-8.584c.029 1.336.371 2.425 1.024 3.268.654.828 1.598 1.241 2.833 1.241 1.714 0 2.81-.842 3.289-2.527h1.308c-.247 1.133-.77 2.034-1.569 2.702-.784.653-1.794.98-3.028.98zm-3.835-6.732h7.146c-.029-1.177-.334-2.128-.915-2.854-.566-.741-1.401-1.111-2.505-1.111-1.09 0-1.954.363-2.593 1.089-.625.726-1.002 1.685-1.133 2.876zm10.236 6.449v-11.264h1.351v1.721h.043c.886-1.307 2.143-1.961 3.769-1.961 1.075 0 1.939.313 2.593.937.668.61 1.002 1.467 1.002 2.571v7.996h-1.35v-7.865c0-1.656-.857-2.484-2.571-2.484-.974 0-1.801.305-2.484.915-.668.61-1.002 1.373-1.002 2.288v7.146zm13.817.087c-1.438 0-2.157-.675-2.157-2.026v-8.214h-1.699v-1.111h1.699v-3.464h1.351v3.464h2.091v1.111h-2.091v7.996c0 .392.087.668.261.828.175.16.451.24.828.24.334 0 .632-.059.893-.175h.066v1.155c-.363.131-.777.196-1.242.196zm5.999.174c-1.089 0-1.975-.268-2.658-.806-.683-.537-1.024-1.314-1.024-2.331 0-.639.109-1.176.327-1.612.232-.45.581-.799 1.045-1.046.48-.247.959-.428 1.438-.545.494-.13 1.104-.239 1.831-.326 1.22-.146 2.026-.298 2.418-.458.407-.174.61-.53.61-1.068v-.217c0-1.511-.901-2.266-2.702-2.266-2.004 0-3.057.835-3.159 2.505h-1.329c.073-1.118.487-1.997 1.242-2.636s1.837-.959 3.246-.959c2.658 0 3.987 1.162 3.987 3.486v6.122c0 .625.247.952.741.981.073 0 .24-.029.501-.087h.066v.98c-.262.116-.567.174-.915.174-1.046 0-1.598-.53-1.656-1.59v-.24h-.066c-.915 1.293-2.229 1.939-3.943 1.939zm.24-1.089c1.162 0 2.077-.327 2.745-.98.682-.669 1.024-1.424 1.024-2.266v-2.026c-.552.305-1.525.552-2.92.74-.465.058-.835.117-1.111.175-.261.058-.559.145-.893.261-.32.116-.567.254-.741.414-.16.16-.305.378-.436.654-.116.276-.174.602-.174.98 0 1.365.835 2.048 2.506 2.048zm10.357.915c-1.438 0-2.157-.675-2.157-2.026v-8.214h-1.7v-1.111h1.7v-3.464h1.35v3.464h2.092v1.111h-2.092v7.996c0 .392.088.668.262.828s.45.24.828.24c.334 0 .632-.059.893-.175h.065v1.155c-.363.131-.777.196-1.241.196zm3.098-.087v-11.264h1.351v11.264zm0-13.661v-1.9168h1.351v1.9168zm8.278 12.811c1.206 0 2.143-.45 2.811-1.351.668-.9 1.002-2.04 1.002-3.42s-.334-2.52-1.002-3.421c-.668-.9-1.605-1.35-2.811-1.35-1.22 0-2.164.45-2.832 1.35-.668.901-1.002 2.041-1.002 3.421s.334 2.52 1.002 3.42c.668.901 1.612 1.351 2.832 1.351zm0 1.133c-1.598 0-2.868-.552-3.813-1.656-.944-1.118-1.416-2.534-1.416-4.248s.472-3.123 1.416-4.227c.945-1.118 2.215-1.677 3.813-1.677 1.583 0 2.84.559 3.769 1.677.944 1.104 1.416 2.513 1.416 4.227s-.472 3.13-1.416 4.248c-.929 1.104-2.186 1.656-3.769 1.656zm6.891-.283v-11.264h1.351v1.721h.044c.886-1.307 2.142-1.961 3.769-1.961 1.075 0 1.939.313 2.592.937.669.61 1.003 1.467 1.003 2.571v7.996h-1.351v-7.865c0-1.656-.857-2.484-2.571-2.484-.973 0-1.801.305-2.484.915-.668.61-1.002 1.373-1.002 2.288v7.146z" fill="#6a6a6b"/><path d="m263.76 181.961c0 23.049-18.685 41.734-41.734 41.734s-41.734-18.685-41.734-41.734 18.685-41.734 41.734-41.734 41.734 18.685 41.734 41.734zm-78.172 0c0 20.124 16.314 36.437 36.438 36.437s36.437-16.313 36.437-36.437-16.313-36.438-36.437-36.438-36.438 16.314-36.438 36.438z" fill="#eeedfe"/><path d="m195.016 210.213c-1.01 1.057-.978 2.741.141 3.682 4.601 3.871 9.992 6.709 15.809 8.308 6.67 1.833 13.692 1.979 20.432.426 6.741-1.554 12.99-4.758 18.185-9.326 5.195-4.567 9.173-10.355 11.577-16.841 2.404-6.487 3.157-13.469 2.193-20.319-.965-6.85-3.616-13.353-7.717-18.923-4.101-5.571-9.522-10.035-15.777-12.991-5.454-2.578-11.393-3.939-17.405-4-1.462-.015-2.584 1.241-2.506 2.701.077 1.461 1.326 2.572 2.788 2.6 5.134.1 10.199 1.285 14.86 3.487 5.46 2.581 10.194 6.479 13.774 11.343 3.581 4.863 5.896 10.541 6.738 16.521.842 5.981.184 12.077-1.915 17.74-2.098 5.664-5.572 10.716-10.107 14.704-4.536 3.988-9.992 6.786-15.877 8.143-5.885 1.356-12.015 1.228-17.839-.372-4.971-1.366-9.585-3.769-13.544-7.038-1.128-.932-2.799-.902-3.81.155z" fill="#1d1d1f"/><circle cx="222.503" cy="182.438" fill="#eeedfe" r="23.8481"/><path d="m206.392 187.613v-9.851h1.24v9.851zm4.058-7.123v.937h.027c.552-.735 1.305-1.102 2.26-1.102.753 0 1.341.197 1.764.592.422.395.634.96.634 1.695v5.001h-1.117v-4.905c0-.459-.142-.813-.427-1.061-.284-.257-.679-.386-1.185-.386-.569 0-1.038.184-1.405.552-.367.367-.551.84-.551 1.419v4.381h-1.116v-7.123zm7.279-2.728v3.665h.028c.551-.735 1.304-1.102 2.259-1.102.754 0 1.342.197 1.764.592.423.395.634.96.634 1.695v5.001h-1.116v-4.905c0-.459-.143-.813-.427-1.061-.285-.257-.68-.386-1.185-.386-.57 0-1.038.184-1.406.552-.367.367-.551.84-.551 1.419v4.381h-1.116v-9.851zm11.758 9.92c-.708 0-1.116-.353-1.227-1.061h-.013c-.588.753-1.378 1.13-2.37 1.13-.708 0-1.286-.17-1.736-.51s-.676-.831-.676-1.474c0-.331.051-.615.152-.854.11-.248.248-.446.413-.593.166-.156.391-.289.676-.399.293-.12.574-.207.84-.262.266-.064.606-.129 1.02-.193.266-.037.454-.064.564-.083.12-.027.271-.064.455-.11.184-.055.312-.115.386-.179.073-.064.142-.152.207-.262.064-.11.096-.239.096-.386 0-.404-.142-.711-.427-.923-.276-.22-.666-.33-1.171-.33-1.148 0-1.741.523-1.778 1.57h-1.074c.018-.725.266-1.309.744-1.75.487-.44 1.185-.661 2.094-.661 1.754 0 2.632.753 2.632 2.26v3.389c0 .313.05.533.151.662.11.128.313.16.606.096h.042v.813c-.184.073-.386.11-.606.11zm-3.362-.785c.689 0 1.221-.198 1.598-.593.377-.404.565-.845.565-1.322v-1.213c-.34.211-.882.386-1.626.524-.276.055-.491.101-.648.137-.156.028-.335.083-.537.166-.202.073-.354.156-.455.248s-.188.216-.261.372c-.074.147-.111.321-.111.523 0 .772.492 1.158 1.475 1.158zm4.833.716v-9.851h1.116v9.851zm5.721.193c-1.056 0-1.897-.353-2.521-1.061-.616-.716-.923-1.612-.923-2.687 0-1.056.312-1.942.937-2.659.633-.725 1.446-1.088 2.438-1.088 1.048 0 1.856.367 2.425 1.102.57.726.855 1.695.855 2.907h-5.512c.046.753.267 1.369.662 1.847.404.468.95.702 1.639.702 1.066 0 1.723-.487 1.971-1.46h1.088c-.165.762-.514 1.355-1.047 1.777-.533.414-1.203.62-2.012.62zm1.419-6.007c-.358-.404-.854-.606-1.488-.606-.633 0-1.139.211-1.515.633-.368.423-.597.974-.689 1.654h4.285c-.037-.717-.234-1.277-.593-1.681z" fill="#1d1d1f"/></g></g></svg>