<svg width="16" height="16" viewBox="0 0 16 16" fill="none" xmlns="http://www.w3.org/2000/svg">
<path d="M7.60018 14.6002C11.4662 14.6002 14.6001 11.4661 14.6001 7.60012C14.6001 3.73412 11.4661 0.600098 7.60016 0.600098C4.46581 0.600098 1.84218 2.66013 0.950195 5.50012H2.70019" stroke="#6A6A6B" stroke-width="1.2" stroke-linecap="round" stroke-linejoin="round"/>
<path d="M7.6001 4.80029V7.6003L9.0001 9.00031" stroke="#6A6A6B" stroke-width="1.2" stroke-linecap="round" stroke-linejoin="round"/>
<path d="M0.600098 7.6001C0.600098 7.8362 0.610741 8.0697 0.631553 8.3001M5.50009 14.6001C5.26097 14.5214 5.02738 14.4296 4.80009 14.3256M1.44667 11.1001C1.31168 10.84 1.19126 10.5704 1.08658 10.2925M2.58195 12.7147C2.79592 12.9452 3.02423 13.161 3.26538 13.3606" stroke="#6A6A6B" stroke-width="1.2" stroke-linecap="round" stroke-linejoin="round"/>
</svg>
