<svg width="18" height="18" viewBox="0 0 18 18" fill="none" xmlns="http://www.w3.org/2000/svg">
<path d="M5.25 6.375L7.45651 7.67957C8.74291 8.44014 9.25709 8.44014 10.5435 7.67957L12.75 6.375" stroke="#6A6A6B" stroke-width="1.2" stroke-linecap="round" stroke-linejoin="round"/>
<path d="M1.51182 10.1067C1.56086 12.4059 1.58537 13.5554 2.43372 14.407C3.28206 15.2586 4.46275 15.2883 6.82412 15.3476C8.27948 15.3841 9.72052 15.3841 11.1759 15.3476C13.5373 15.2883 14.7179 15.2586 15.5663 14.407C16.4146 13.5554 16.4391 12.4059 16.4882 10.1067C16.5039 9.36745 16.5039 8.63256 16.4882 7.8933C16.4391 5.59415 16.4146 4.44457 15.5663 3.593C14.7179 2.74142 13.5373 2.71176 11.1759 2.65243C9.72052 2.61586 8.27948 2.61586 6.82412 2.65242C4.46275 2.71175 3.28206 2.74141 2.43371 3.59299C1.58537 4.44456 1.56085 5.59413 1.51182 7.89328C1.49606 8.63255 1.49606 9.36745 1.51182 10.1067Z" stroke="#6A6A6B" stroke-width="1.2" stroke-linejoin="round"/>
</svg>
