<svg width="16" height="16" viewBox="0 0 16 16" fill="none" xmlns="http://www.w3.org/2000/svg">
<path d="M2.32444 2.3501C2.1016 2.43972 1.90437 2.5523 1.72532 2.69371C1.58484 2.80465 1.45493 2.92692 1.33706 3.05913C0.600098 3.88574 0.600098 5.12386 0.600098 7.6001C0.600098 10.0763 0.600098 11.3145 1.33706 12.1411C1.45493 12.2733 1.58484 12.3955 1.72532 12.5065C2.60359 13.2001 3.91909 13.2001 6.5501 13.2001H8.6501C10.7447 13.2001 11.9799 13.2001 12.8501 12.8501" stroke="#6A6A6B" stroke-width="1.2" stroke-linecap="round" stroke-linejoin="round"/>
<path d="M4.80005 2.01105C5.30944 2 5.88811 2 6.55005 2H8.65005C11.2811 2 12.5966 2 13.4748 2.69361C13.6153 2.80455 13.7452 2.92682 13.8631 3.05903C14.6 3.88564 14.6 5.12376 14.6 7.6C14.6 9.21884 14.6 10.3085 14.3941 11.1" stroke="#6A6A6B" stroke-width="1.2" stroke-linecap="round" stroke-linejoin="round"/>
<path d="M0.600098 0.600098L14.6001 14.6001" stroke="#6A6A6B" stroke-width="1.2" stroke-linecap="round"/>
<path d="M0.950195 5.5H5.50019" stroke="#6A6A6B" stroke-width="1.2" stroke-linecap="round" stroke-linejoin="round"/>
<path d="M14.2501 5.5L8.65015 5.5" stroke="#6A6A6B" stroke-width="1.2" stroke-linecap="round" stroke-linejoin="round"/>
</svg>
