<svg width="16" height="17" viewBox="0 0 16 17" fill="none" xmlns="http://www.w3.org/2000/svg">
<path d="M8.02747 1.33105C8.90692 1.33105 9.77843 1.50427 10.5909 1.84082C11.4031 2.1773 12.1411 2.67039 12.7628 3.29199C13.3847 3.91384 13.8784 4.65237 14.215 5.46484C14.5515 6.27723 14.7247 7.14803 14.7247 8.02734C14.7247 9.35183 14.3316 10.6468 13.5958 11.748C12.86 12.8493 11.8145 13.7079 10.5909 14.2148C9.36723 14.7217 8.01991 14.8541 6.72083 14.5957C5.42199 14.3372 4.22856 13.7001 3.29211 12.7637C2.35553 11.8271 1.71751 10.6331 1.45911 9.33398C1.2008 8.03501 1.33411 6.68844 1.84094 5.46484C2.34782 4.24125 3.20554 3.19481 4.30676 2.45898C5.40798 1.72317 6.70304 1.33112 8.02747 1.33105ZM6.22473 11.9883L6.8429 11.5244L11.0929 8.33691L11.505 8.02734L11.0929 7.71875L6.8429 4.53125L6.22473 4.06738V11.9883Z" stroke="#BDBDBD" stroke-width="0.772727"/>
</svg>
