<svg width="19" height="19" viewBox="0 0 19 19" fill="none" xmlns="http://www.w3.org/2000/svg">
<path d="M1.58334 10.3708L3.56251 9.18333C4.78168 8.455 6.30168 8.455 7.52084 9.18333C8.74001 9.91167 10.26 9.91167 11.4792 9.18333C12.6983 8.455 14.2183 8.455 15.4375 9.18333L17.4167 10.3708" stroke="#F7F6F5" stroke-miterlimit="10" stroke-linecap="round" stroke-linejoin="round"/>
<path d="M1.58334 3.08752L3.56251 4.27502C4.78168 5.00336 6.30168 5.00336 7.52084 4.27502C8.74001 3.54669 10.26 3.54669 11.4792 4.27502C12.6983 5.00336 14.2183 5.00336 15.4375 4.27502L17.4167 3.08752" stroke="#F7F6F5" stroke-miterlimit="10" stroke-linecap="round" stroke-linejoin="round"/>
<path d="M1.58334 15.9125L3.56251 14.725C4.78168 13.9967 6.30168 13.9967 7.52084 14.725C8.74001 15.4534 10.26 15.4534 11.4792 14.725C12.6983 13.9967 14.2183 13.9967 15.4375 14.725L17.4167 15.9125" stroke="#F7F6F5" stroke-miterlimit="10" stroke-linecap="round" stroke-linejoin="round"/>
</svg>
